<mxfile host="Electron" modified="2024-03-23T08:29:34.468Z" agent="Mozilla/5.0 (X11; Linux x86_64) AppleWebKit/537.36 (KHTML, like Gecko) draw.io/23.1.5 Chrome/120.0.6099.109 Electron/28.1.0 Safari/537.36" etag="ZaYQysvVOaPF-f1VWDmv" version="23.1.5" type="device">
  <diagram id="C5RBs43oDa-KdzZeNtuy" name="Page-1">
    <mxGraphModel dx="1378" dy="851" grid="1" gridSize="10" guides="1" tooltips="1" connect="1" arrows="1" fold="1" page="1" pageScale="1" pageWidth="827" pageHeight="1169" math="0" shadow="0">
      <root>
        <mxCell id="WIyWlLk6GJQsqaUBKTNV-0" />
        <mxCell id="WIyWlLk6GJQsqaUBKTNV-1" parent="WIyWlLk6GJQsqaUBKTNV-0" />
        <mxCell id="Kou-GCSw7aOlVnfjeSuj-2" style="edgeStyle=orthogonalEdgeStyle;rounded=0;orthogonalLoop=1;jettySize=auto;html=1;exitX=0.5;exitY=1;exitDx=0;exitDy=0;entryX=0.5;entryY=0;entryDx=0;entryDy=0;" parent="WIyWlLk6GJQsqaUBKTNV-1" source="Kou-GCSw7aOlVnfjeSuj-0" target="Kou-GCSw7aOlVnfjeSuj-1" edge="1">
          <mxGeometry relative="1" as="geometry" />
        </mxCell>
        <mxCell id="Kou-GCSw7aOlVnfjeSuj-0" value="начало" style="ellipse;whiteSpace=wrap;html=1;" parent="WIyWlLk6GJQsqaUBKTNV-1" vertex="1">
          <mxGeometry x="160" y="50" width="90" height="40" as="geometry" />
        </mxCell>
        <mxCell id="Kou-GCSw7aOlVnfjeSuj-4" style="edgeStyle=orthogonalEdgeStyle;rounded=0;orthogonalLoop=1;jettySize=auto;html=1;exitX=0.5;exitY=1;exitDx=0;exitDy=0;entryX=0.5;entryY=0;entryDx=0;entryDy=0;" parent="WIyWlLk6GJQsqaUBKTNV-1" source="Kou-GCSw7aOlVnfjeSuj-1" target="Kou-GCSw7aOlVnfjeSuj-3" edge="1">
          <mxGeometry relative="1" as="geometry" />
        </mxCell>
        <mxCell id="Kou-GCSw7aOlVnfjeSuj-1" value="int n, min;&lt;br&gt;string message;" style="rounded=0;whiteSpace=wrap;html=1;" parent="WIyWlLk6GJQsqaUBKTNV-1" vertex="1">
          <mxGeometry x="160" y="110" width="90" height="40" as="geometry" />
        </mxCell>
        <mxCell id="Kou-GCSw7aOlVnfjeSuj-7" style="edgeStyle=orthogonalEdgeStyle;rounded=0;orthogonalLoop=1;jettySize=auto;html=1;exitX=0.5;exitY=1;exitDx=0;exitDy=0;entryX=0.5;entryY=0;entryDx=0;entryDy=0;" parent="WIyWlLk6GJQsqaUBKTNV-1" source="Kou-GCSw7aOlVnfjeSuj-3" target="Kou-GCSw7aOlVnfjeSuj-6" edge="1">
          <mxGeometry relative="1" as="geometry" />
        </mxCell>
        <mxCell id="Kou-GCSw7aOlVnfjeSuj-3" value="Вывод &lt;br&gt;message" style="shape=parallelogram;perimeter=parallelogramPerimeter;whiteSpace=wrap;html=1;fixedSize=1;" parent="WIyWlLk6GJQsqaUBKTNV-1" vertex="1">
          <mxGeometry x="157.5" y="170" width="95" height="40" as="geometry" />
        </mxCell>
        <mxCell id="Kou-GCSw7aOlVnfjeSuj-10" style="edgeStyle=orthogonalEdgeStyle;rounded=0;orthogonalLoop=1;jettySize=auto;html=1;exitX=0.5;exitY=1;exitDx=0;exitDy=0;entryX=0.5;entryY=0;entryDx=0;entryDy=0;" parent="WIyWlLk6GJQsqaUBKTNV-1" source="Kou-GCSw7aOlVnfjeSuj-6" target="Kou-GCSw7aOlVnfjeSuj-8" edge="1">
          <mxGeometry relative="1" as="geometry" />
        </mxCell>
        <mxCell id="Kou-GCSw7aOlVnfjeSuj-6" value="Ввод n" style="shape=parallelogram;perimeter=parallelogramPerimeter;whiteSpace=wrap;html=1;fixedSize=1;" parent="WIyWlLk6GJQsqaUBKTNV-1" vertex="1">
          <mxGeometry x="155" y="230" width="95" height="40" as="geometry" />
        </mxCell>
        <mxCell id="Kou-GCSw7aOlVnfjeSuj-13" style="edgeStyle=orthogonalEdgeStyle;rounded=0;orthogonalLoop=1;jettySize=auto;html=1;exitX=1;exitY=0.5;exitDx=0;exitDy=0;entryX=0.513;entryY=-0.122;entryDx=0;entryDy=0;entryPerimeter=0;" parent="WIyWlLk6GJQsqaUBKTNV-1" source="Kou-GCSw7aOlVnfjeSuj-8" target="Kou-GCSw7aOlVnfjeSuj-11" edge="1">
          <mxGeometry relative="1" as="geometry" />
        </mxCell>
        <mxCell id="Kou-GCSw7aOlVnfjeSuj-17" style="edgeStyle=orthogonalEdgeStyle;rounded=0;orthogonalLoop=1;jettySize=auto;html=1;exitX=0.5;exitY=1;exitDx=0;exitDy=0;entryX=0.5;entryY=0;entryDx=0;entryDy=0;" parent="WIyWlLk6GJQsqaUBKTNV-1" source="Kou-GCSw7aOlVnfjeSuj-8" target="Kou-GCSw7aOlVnfjeSuj-15" edge="1">
          <mxGeometry relative="1" as="geometry" />
        </mxCell>
        <mxCell id="Kou-GCSw7aOlVnfjeSuj-8" value="!n || n&amp;lt;min" style="rhombus;whiteSpace=wrap;html=1;" parent="WIyWlLk6GJQsqaUBKTNV-1" vertex="1">
          <mxGeometry x="162.5" y="290" width="85" height="40" as="geometry" />
        </mxCell>
        <mxCell id="Kou-GCSw7aOlVnfjeSuj-16" style="edgeStyle=orthogonalEdgeStyle;rounded=0;orthogonalLoop=1;jettySize=auto;html=1;exitX=0.5;exitY=1;exitDx=0;exitDy=0;entryX=0.5;entryY=0;entryDx=0;entryDy=0;" parent="WIyWlLk6GJQsqaUBKTNV-1" source="Kou-GCSw7aOlVnfjeSuj-11" target="Kou-GCSw7aOlVnfjeSuj-68" edge="1">
          <mxGeometry relative="1" as="geometry" />
        </mxCell>
        <mxCell id="Kou-GCSw7aOlVnfjeSuj-11" value="&lt;font style=&quot;font-size: 10px;&quot;&gt;Вывод: &quot;&lt;/font&gt;&lt;font style=&quot;font-size: 10px;&quot;&gt;Число &lt;br&gt;&lt;/font&gt;&lt;div style=&quot;font-size: 10px;&quot;&gt;&lt;font style=&quot;font-size: 10px;&quot;&gt;должно &lt;br&gt;&lt;/font&gt;&lt;/div&gt;&lt;div style=&quot;font-size: 10px;&quot;&gt;&lt;font style=&quot;font-size: 10px;&quot;&gt;быть &amp;gt; min&quot;&lt;/font&gt;&lt;/div&gt;" style="shape=parallelogram;perimeter=parallelogramPerimeter;whiteSpace=wrap;html=1;fixedSize=1;" parent="WIyWlLk6GJQsqaUBKTNV-1" vertex="1">
          <mxGeometry x="215" y="350" width="100" height="50" as="geometry" />
        </mxCell>
        <mxCell id="Kou-GCSw7aOlVnfjeSuj-14" value="да" style="text;html=1;strokeColor=none;fillColor=none;align=center;verticalAlign=middle;whiteSpace=wrap;rounded=0;" parent="WIyWlLk6GJQsqaUBKTNV-1" vertex="1">
          <mxGeometry x="240" y="295" width="60" height="30" as="geometry" />
        </mxCell>
        <mxCell id="Kou-GCSw7aOlVnfjeSuj-19" style="edgeStyle=orthogonalEdgeStyle;rounded=0;orthogonalLoop=1;jettySize=auto;html=1;exitX=0;exitY=0.5;exitDx=0;exitDy=0;" parent="WIyWlLk6GJQsqaUBKTNV-1" source="Kou-GCSw7aOlVnfjeSuj-15" edge="1">
          <mxGeometry relative="1" as="geometry">
            <mxPoint x="205" y="160" as="targetPoint" />
            <Array as="points">
              <mxPoint x="163" y="540" />
              <mxPoint x="120" y="540" />
              <mxPoint x="120" y="160" />
            </Array>
          </mxGeometry>
        </mxCell>
        <mxCell id="Kou-GCSw7aOlVnfjeSuj-23" style="edgeStyle=orthogonalEdgeStyle;rounded=0;orthogonalLoop=1;jettySize=auto;html=1;exitX=0.5;exitY=1;exitDx=0;exitDy=0;" parent="WIyWlLk6GJQsqaUBKTNV-1" source="Kou-GCSw7aOlVnfjeSuj-15" edge="1">
          <mxGeometry relative="1" as="geometry">
            <mxPoint x="205" y="590" as="targetPoint" />
          </mxGeometry>
        </mxCell>
        <mxCell id="Kou-GCSw7aOlVnfjeSuj-15" value="n&amp;lt;min" style="rhombus;whiteSpace=wrap;html=1;" parent="WIyWlLk6GJQsqaUBKTNV-1" vertex="1">
          <mxGeometry x="162.5" y="530" width="85" height="40" as="geometry" />
        </mxCell>
        <mxCell id="Kou-GCSw7aOlVnfjeSuj-18" value="нет" style="text;html=1;strokeColor=none;fillColor=none;align=center;verticalAlign=middle;whiteSpace=wrap;rounded=0;" parent="WIyWlLk6GJQsqaUBKTNV-1" vertex="1">
          <mxGeometry x="157.5" y="330" width="60" height="30" as="geometry" />
        </mxCell>
        <mxCell id="Kou-GCSw7aOlVnfjeSuj-20" value="да" style="text;html=1;strokeColor=none;fillColor=none;align=center;verticalAlign=middle;whiteSpace=wrap;rounded=0;" parent="WIyWlLk6GJQsqaUBKTNV-1" vertex="1">
          <mxGeometry x="120" y="510" width="60" height="30" as="geometry" />
        </mxCell>
        <mxCell id="Kou-GCSw7aOlVnfjeSuj-21" value="return n;" style="shape=rectangle;perimeter=rectanglePerimeter;whiteSpace=wrap;html=1;fixedSize=1;" parent="WIyWlLk6GJQsqaUBKTNV-1" vertex="1">
          <mxGeometry x="155" y="660" width="95" height="40" as="geometry" />
        </mxCell>
        <mxCell id="Kou-GCSw7aOlVnfjeSuj-24" value="конец" style="ellipse;whiteSpace=wrap;html=1;" parent="WIyWlLk6GJQsqaUBKTNV-1" vertex="1">
          <mxGeometry x="155" y="735" width="90" height="40" as="geometry" />
        </mxCell>
        <mxCell id="Kou-GCSw7aOlVnfjeSuj-25" style="edgeStyle=orthogonalEdgeStyle;rounded=0;orthogonalLoop=1;jettySize=auto;html=1;exitX=0.5;exitY=1;exitDx=0;exitDy=0;entryX=0.5;entryY=0;entryDx=0;entryDy=0;" parent="WIyWlLk6GJQsqaUBKTNV-1" source="Kou-GCSw7aOlVnfjeSuj-21" target="Kou-GCSw7aOlVnfjeSuj-24" edge="1">
          <mxGeometry relative="1" as="geometry">
            <mxPoint x="215" y="650" as="sourcePoint" />
            <mxPoint x="215" y="668" as="targetPoint" />
            <Array as="points">
              <mxPoint x="200" y="700" />
            </Array>
          </mxGeometry>
        </mxCell>
        <mxCell id="Kou-GCSw7aOlVnfjeSuj-26" value="нет" style="text;html=1;strokeColor=none;fillColor=none;align=center;verticalAlign=middle;whiteSpace=wrap;rounded=0;" parent="WIyWlLk6GJQsqaUBKTNV-1" vertex="1">
          <mxGeometry x="192.5" y="560" width="60" height="30" as="geometry" />
        </mxCell>
        <mxCell id="Kou-GCSw7aOlVnfjeSuj-27" value="&lt;font style=&quot;font-size: 15px;&quot;&gt;&lt;b&gt;inputInt&lt;/b&gt;&lt;/font&gt;" style="text;html=1;strokeColor=none;fillColor=none;align=center;verticalAlign=middle;whiteSpace=wrap;rounded=0;" parent="WIyWlLk6GJQsqaUBKTNV-1" vertex="1">
          <mxGeometry x="175" y="10" width="60" height="30" as="geometry" />
        </mxCell>
        <mxCell id="Kou-GCSw7aOlVnfjeSuj-28" value="&lt;div&gt;&lt;font style=&quot;font-size: 15px;&quot;&gt;&lt;b&gt;inputString&lt;/b&gt;&lt;/font&gt;&lt;/div&gt;&lt;div&gt;&lt;font style=&quot;font-size: 15px;&quot;&gt;&lt;b&gt;&lt;br&gt;&lt;/b&gt;&lt;/font&gt;&lt;/div&gt;" style="text;html=1;strokeColor=none;fillColor=none;align=center;verticalAlign=middle;whiteSpace=wrap;rounded=0;" parent="WIyWlLk6GJQsqaUBKTNV-1" vertex="1">
          <mxGeometry x="460" y="20" width="60" height="30" as="geometry" />
        </mxCell>
        <mxCell id="Kou-GCSw7aOlVnfjeSuj-31" style="edgeStyle=orthogonalEdgeStyle;rounded=0;orthogonalLoop=1;jettySize=auto;html=1;exitX=0.5;exitY=1;exitDx=0;exitDy=0;" parent="WIyWlLk6GJQsqaUBKTNV-1" source="Kou-GCSw7aOlVnfjeSuj-29" target="Kou-GCSw7aOlVnfjeSuj-30" edge="1">
          <mxGeometry relative="1" as="geometry" />
        </mxCell>
        <mxCell id="Kou-GCSw7aOlVnfjeSuj-29" value="начало" style="ellipse;whiteSpace=wrap;html=1;" parent="WIyWlLk6GJQsqaUBKTNV-1" vertex="1">
          <mxGeometry x="445" y="50" width="90" height="40" as="geometry" />
        </mxCell>
        <mxCell id="Kou-GCSw7aOlVnfjeSuj-35" style="edgeStyle=orthogonalEdgeStyle;rounded=0;orthogonalLoop=1;jettySize=auto;html=1;exitX=0.5;exitY=1;exitDx=0;exitDy=0;entryX=0.54;entryY=-0.06;entryDx=0;entryDy=0;entryPerimeter=0;" parent="WIyWlLk6GJQsqaUBKTNV-1" source="Kou-GCSw7aOlVnfjeSuj-30" target="Kou-GCSw7aOlVnfjeSuj-33" edge="1">
          <mxGeometry relative="1" as="geometry" />
        </mxCell>
        <mxCell id="Kou-GCSw7aOlVnfjeSuj-30" value="string message, str;" style="rounded=0;whiteSpace=wrap;html=1;" parent="WIyWlLk6GJQsqaUBKTNV-1" vertex="1">
          <mxGeometry x="445" y="110" width="90" height="40" as="geometry" />
        </mxCell>
        <mxCell id="Kou-GCSw7aOlVnfjeSuj-32" style="edgeStyle=orthogonalEdgeStyle;rounded=0;orthogonalLoop=1;jettySize=auto;html=1;exitX=0.5;exitY=1;exitDx=0;exitDy=0;entryX=0.5;entryY=0;entryDx=0;entryDy=0;" parent="WIyWlLk6GJQsqaUBKTNV-1" source="Kou-GCSw7aOlVnfjeSuj-33" target="Kou-GCSw7aOlVnfjeSuj-34" edge="1">
          <mxGeometry relative="1" as="geometry" />
        </mxCell>
        <mxCell id="Kou-GCSw7aOlVnfjeSuj-33" value="Вывод &lt;br&gt;message" style="shape=parallelogram;perimeter=parallelogramPerimeter;whiteSpace=wrap;html=1;fixedSize=1;" parent="WIyWlLk6GJQsqaUBKTNV-1" vertex="1">
          <mxGeometry x="440" y="170" width="95" height="40" as="geometry" />
        </mxCell>
        <mxCell id="Kou-GCSw7aOlVnfjeSuj-37" style="edgeStyle=orthogonalEdgeStyle;rounded=0;orthogonalLoop=1;jettySize=auto;html=1;exitX=0.5;exitY=1;exitDx=0;exitDy=0;entryX=0.5;entryY=0;entryDx=0;entryDy=0;" parent="WIyWlLk6GJQsqaUBKTNV-1" source="Kou-GCSw7aOlVnfjeSuj-34" target="Kou-GCSw7aOlVnfjeSuj-36" edge="1">
          <mxGeometry relative="1" as="geometry" />
        </mxCell>
        <mxCell id="Kou-GCSw7aOlVnfjeSuj-34" value="Ввод str" style="shape=parallelogram;perimeter=parallelogramPerimeter;whiteSpace=wrap;html=1;fixedSize=1;" parent="WIyWlLk6GJQsqaUBKTNV-1" vertex="1">
          <mxGeometry x="440" y="230" width="95" height="40" as="geometry" />
        </mxCell>
        <mxCell id="Kou-GCSw7aOlVnfjeSuj-39" style="edgeStyle=orthogonalEdgeStyle;rounded=0;orthogonalLoop=1;jettySize=auto;html=1;exitX=0.5;exitY=1;exitDx=0;exitDy=0;" parent="WIyWlLk6GJQsqaUBKTNV-1" source="Kou-GCSw7aOlVnfjeSuj-36" target="Kou-GCSw7aOlVnfjeSuj-38" edge="1">
          <mxGeometry relative="1" as="geometry" />
        </mxCell>
        <mxCell id="Kou-GCSw7aOlVnfjeSuj-36" value="return str;" style="shape=rectangle;perimeter=rectanglePerimeter;whiteSpace=wrap;html=1;fixedSize=1;" parent="WIyWlLk6GJQsqaUBKTNV-1" vertex="1">
          <mxGeometry x="440" y="285" width="95" height="40" as="geometry" />
        </mxCell>
        <mxCell id="Kou-GCSw7aOlVnfjeSuj-38" value="конец" style="ellipse;whiteSpace=wrap;html=1;" parent="WIyWlLk6GJQsqaUBKTNV-1" vertex="1">
          <mxGeometry x="442.5" y="340" width="90" height="40" as="geometry" />
        </mxCell>
        <mxCell id="Kou-GCSw7aOlVnfjeSuj-40" value="&lt;font size=&quot;1&quot;&gt;&lt;b style=&quot;font-size: 14px;&quot;&gt;checkOpenInputFile&lt;/b&gt;&lt;/font&gt;" style="text;html=1;strokeColor=none;fillColor=none;align=center;verticalAlign=middle;whiteSpace=wrap;rounded=0;" parent="WIyWlLk6GJQsqaUBKTNV-1" vertex="1">
          <mxGeometry x="675" y="20" width="60" height="30" as="geometry" />
        </mxCell>
        <mxCell id="Kou-GCSw7aOlVnfjeSuj-41" style="edgeStyle=orthogonalEdgeStyle;rounded=0;orthogonalLoop=1;jettySize=auto;html=1;exitX=0.5;exitY=1;exitDx=0;exitDy=0;" parent="WIyWlLk6GJQsqaUBKTNV-1" source="Kou-GCSw7aOlVnfjeSuj-42" target="Kou-GCSw7aOlVnfjeSuj-43" edge="1">
          <mxGeometry relative="1" as="geometry" />
        </mxCell>
        <mxCell id="Kou-GCSw7aOlVnfjeSuj-42" value="начало" style="ellipse;whiteSpace=wrap;html=1;" parent="WIyWlLk6GJQsqaUBKTNV-1" vertex="1">
          <mxGeometry x="660" y="50" width="90" height="40" as="geometry" />
        </mxCell>
        <mxCell id="Kou-GCSw7aOlVnfjeSuj-46" style="edgeStyle=orthogonalEdgeStyle;rounded=0;orthogonalLoop=1;jettySize=auto;html=1;exitX=0.5;exitY=1;exitDx=0;exitDy=0;entryX=0.5;entryY=0;entryDx=0;entryDy=0;fontSize=10;" parent="WIyWlLk6GJQsqaUBKTNV-1" source="Kou-GCSw7aOlVnfjeSuj-43" target="Kou-GCSw7aOlVnfjeSuj-45" edge="1">
          <mxGeometry relative="1" as="geometry" />
        </mxCell>
        <mxCell id="Kou-GCSw7aOlVnfjeSuj-43" value="&lt;div style=&quot;font-size: 10px;&quot;&gt;&lt;font style=&quot;font-size: 10px;&quot;&gt;string message, filename;&lt;/font&gt;&lt;/div&gt;&lt;div style=&quot;font-size: 10px;&quot;&gt;&lt;font style=&quot;font-size: 10px;&quot;&gt;bool is_open=false;&lt;/font&gt;&lt;/div&gt;&lt;font style=&quot;font-size: 10px;&quot;&gt;&lt;font style=&quot;font-size: 10px;&quot;&gt;&lt;br style=&quot;font-size: 10px;&quot;&gt;&lt;/font&gt;&lt;/font&gt;" style="rounded=0;whiteSpace=wrap;html=1;fontSize=10;" parent="WIyWlLk6GJQsqaUBKTNV-1" vertex="1">
          <mxGeometry x="660" y="110" width="90" height="50" as="geometry" />
        </mxCell>
        <mxCell id="Kou-GCSw7aOlVnfjeSuj-50" style="edgeStyle=orthogonalEdgeStyle;rounded=0;orthogonalLoop=1;jettySize=auto;html=1;exitX=0.5;exitY=1;exitDx=0;exitDy=0;entryX=0.5;entryY=0;entryDx=0;entryDy=0;fontSize=10;" parent="WIyWlLk6GJQsqaUBKTNV-1" source="Kou-GCSw7aOlVnfjeSuj-44" target="Kou-GCSw7aOlVnfjeSuj-49" edge="1">
          <mxGeometry relative="1" as="geometry" />
        </mxCell>
        <mxCell id="Kou-GCSw7aOlVnfjeSuj-44" value="&lt;font style=&quot;font-size: 10px;&quot;&gt;ifstream fs(filename, ios::in);&lt;/font&gt;" style="rounded=0;whiteSpace=wrap;html=1;fontSize=10;" parent="WIyWlLk6GJQsqaUBKTNV-1" vertex="1">
          <mxGeometry x="660" y="245" width="90" height="40" as="geometry" />
        </mxCell>
        <mxCell id="Kou-GCSw7aOlVnfjeSuj-48" style="edgeStyle=orthogonalEdgeStyle;rounded=0;orthogonalLoop=1;jettySize=auto;html=1;exitX=0.5;exitY=1;exitDx=0;exitDy=0;entryX=0.5;entryY=0;entryDx=0;entryDy=0;fontSize=10;" parent="WIyWlLk6GJQsqaUBKTNV-1" source="Kou-GCSw7aOlVnfjeSuj-45" target="Kou-GCSw7aOlVnfjeSuj-44" edge="1">
          <mxGeometry relative="1" as="geometry" />
        </mxCell>
        <mxCell id="Kou-GCSw7aOlVnfjeSuj-45" value="&lt;font style=&quot;font-size: 10px;&quot;&gt;filename = &lt;/font&gt;&lt;div style=&quot;font-size: 10px;&quot;&gt;&lt;font style=&quot;font-size: 10px;&quot;&gt;inputString&lt;/font&gt;&lt;/div&gt;&lt;font style=&quot;font-size: 10px;&quot;&gt;(message);&lt;/font&gt;" style="shape=process;whiteSpace=wrap;html=1;backgroundOutline=1;fontSize=10;" parent="WIyWlLk6GJQsqaUBKTNV-1" vertex="1">
          <mxGeometry x="660" y="185" width="90" height="45" as="geometry" />
        </mxCell>
        <mxCell id="Kou-GCSw7aOlVnfjeSuj-52" style="edgeStyle=orthogonalEdgeStyle;rounded=0;orthogonalLoop=1;jettySize=auto;html=1;exitX=1;exitY=0.5;exitDx=0;exitDy=0;fontSize=10;" parent="WIyWlLk6GJQsqaUBKTNV-1" source="Kou-GCSw7aOlVnfjeSuj-49" target="Kou-GCSw7aOlVnfjeSuj-51" edge="1">
          <mxGeometry relative="1" as="geometry" />
        </mxCell>
        <mxCell id="Kou-GCSw7aOlVnfjeSuj-57" style="edgeStyle=orthogonalEdgeStyle;rounded=0;orthogonalLoop=1;jettySize=auto;html=1;exitX=0.5;exitY=1;exitDx=0;exitDy=0;entryX=0.5;entryY=0;entryDx=0;entryDy=0;" parent="WIyWlLk6GJQsqaUBKTNV-1" source="Kou-GCSw7aOlVnfjeSuj-49" target="Kou-GCSw7aOlVnfjeSuj-56" edge="1">
          <mxGeometry relative="1" as="geometry" />
        </mxCell>
        <mxCell id="Kou-GCSw7aOlVnfjeSuj-49" value="&lt;font style=&quot;font-size: 10px;&quot;&gt;fs.is_open()&lt;/font&gt;" style="rhombus;whiteSpace=wrap;html=1;fontSize=10;" parent="WIyWlLk6GJQsqaUBKTNV-1" vertex="1">
          <mxGeometry x="662.5" y="300" width="85" height="40" as="geometry" />
        </mxCell>
        <mxCell id="Kou-GCSw7aOlVnfjeSuj-54" style="edgeStyle=orthogonalEdgeStyle;rounded=0;orthogonalLoop=1;jettySize=auto;html=1;exitX=0.5;exitY=1;exitDx=0;exitDy=0;entryX=0.5;entryY=0;entryDx=0;entryDy=0;" parent="WIyWlLk6GJQsqaUBKTNV-1" source="Kou-GCSw7aOlVnfjeSuj-51" target="Kou-GCSw7aOlVnfjeSuj-53" edge="1">
          <mxGeometry relative="1" as="geometry" />
        </mxCell>
        <mxCell id="Kou-GCSw7aOlVnfjeSuj-51" value="Вывод: &quot;&lt;font style=&quot;font-size: 10px;&quot;&gt;Путь к файлу неправильный&quot;&lt;br style=&quot;font-size: 10px;&quot;&gt;&lt;/font&gt;" style="shape=parallelogram;perimeter=parallelogramPerimeter;whiteSpace=wrap;html=1;fixedSize=1;fontSize=10;" parent="WIyWlLk6GJQsqaUBKTNV-1" vertex="1">
          <mxGeometry x="770" y="350" width="100" height="50" as="geometry" />
        </mxCell>
        <mxCell id="Kou-GCSw7aOlVnfjeSuj-60" style="edgeStyle=orthogonalEdgeStyle;rounded=0;orthogonalLoop=1;jettySize=auto;html=1;exitX=0.5;exitY=1;exitDx=0;exitDy=0;entryX=0.5;entryY=0;entryDx=0;entryDy=0;" parent="WIyWlLk6GJQsqaUBKTNV-1" source="Kou-GCSw7aOlVnfjeSuj-53" target="Kou-GCSw7aOlVnfjeSuj-59" edge="1">
          <mxGeometry relative="1" as="geometry">
            <Array as="points">
              <mxPoint x="820" y="500" />
              <mxPoint x="710" y="500" />
            </Array>
          </mxGeometry>
        </mxCell>
        <mxCell id="Kou-GCSw7aOlVnfjeSuj-53" value="is_open = false;" style="rounded=0;whiteSpace=wrap;html=1;fontSize=10;" parent="WIyWlLk6GJQsqaUBKTNV-1" vertex="1">
          <mxGeometry x="775" y="425" width="90" height="40" as="geometry" />
        </mxCell>
        <mxCell id="Kou-GCSw7aOlVnfjeSuj-55" value="нет" style="text;html=1;strokeColor=none;fillColor=none;align=center;verticalAlign=middle;whiteSpace=wrap;rounded=0;" parent="WIyWlLk6GJQsqaUBKTNV-1" vertex="1">
          <mxGeometry x="735" y="300" width="60" height="30" as="geometry" />
        </mxCell>
        <mxCell id="3QOpX5osjgXmDj752tih-80" style="edgeStyle=orthogonalEdgeStyle;rounded=0;orthogonalLoop=1;jettySize=auto;html=1;exitX=0.5;exitY=1;exitDx=0;exitDy=0;entryX=0.5;entryY=0;entryDx=0;entryDy=0;" parent="WIyWlLk6GJQsqaUBKTNV-1" source="Kou-GCSw7aOlVnfjeSuj-56" target="3QOpX5osjgXmDj752tih-79" edge="1">
          <mxGeometry relative="1" as="geometry" />
        </mxCell>
        <mxCell id="Kou-GCSw7aOlVnfjeSuj-56" value="fs.close();" style="rounded=0;whiteSpace=wrap;html=1;fontSize=10;" parent="WIyWlLk6GJQsqaUBKTNV-1" vertex="1">
          <mxGeometry x="662.5" y="370" width="90" height="40" as="geometry" />
        </mxCell>
        <mxCell id="Kou-GCSw7aOlVnfjeSuj-58" value="да" style="text;html=1;strokeColor=none;fillColor=none;align=center;verticalAlign=middle;whiteSpace=wrap;rounded=0;" parent="WIyWlLk6GJQsqaUBKTNV-1" vertex="1">
          <mxGeometry x="662.5" y="330" width="60" height="30" as="geometry" />
        </mxCell>
        <mxCell id="Kou-GCSw7aOlVnfjeSuj-62" style="edgeStyle=orthogonalEdgeStyle;rounded=0;orthogonalLoop=1;jettySize=auto;html=1;exitX=0;exitY=0.5;exitDx=0;exitDy=0;" parent="WIyWlLk6GJQsqaUBKTNV-1" source="Kou-GCSw7aOlVnfjeSuj-59" edge="1">
          <mxGeometry relative="1" as="geometry">
            <mxPoint x="700" y="170" as="targetPoint" />
            <Array as="points">
              <mxPoint x="640" y="570" />
              <mxPoint x="640" y="170" />
            </Array>
          </mxGeometry>
        </mxCell>
        <mxCell id="Kou-GCSw7aOlVnfjeSuj-65" style="edgeStyle=orthogonalEdgeStyle;rounded=0;orthogonalLoop=1;jettySize=auto;html=1;exitX=0.5;exitY=1;exitDx=0;exitDy=0;" parent="WIyWlLk6GJQsqaUBKTNV-1" source="Kou-GCSw7aOlVnfjeSuj-59" target="Kou-GCSw7aOlVnfjeSuj-64" edge="1">
          <mxGeometry relative="1" as="geometry" />
        </mxCell>
        <mxCell id="Kou-GCSw7aOlVnfjeSuj-59" value="!is_open" style="rhombus;whiteSpace=wrap;html=1;fontSize=10;" parent="WIyWlLk6GJQsqaUBKTNV-1" vertex="1">
          <mxGeometry x="667.5" y="550" width="85" height="40" as="geometry" />
        </mxCell>
        <mxCell id="Kou-GCSw7aOlVnfjeSuj-63" value="да" style="text;html=1;strokeColor=none;fillColor=none;align=center;verticalAlign=middle;whiteSpace=wrap;rounded=0;" parent="WIyWlLk6GJQsqaUBKTNV-1" vertex="1">
          <mxGeometry x="630" y="535" width="60" height="30" as="geometry" />
        </mxCell>
        <mxCell id="Kou-GCSw7aOlVnfjeSuj-67" style="edgeStyle=orthogonalEdgeStyle;rounded=0;orthogonalLoop=1;jettySize=auto;html=1;exitX=0.5;exitY=1;exitDx=0;exitDy=0;entryX=0.5;entryY=0;entryDx=0;entryDy=0;" parent="WIyWlLk6GJQsqaUBKTNV-1" source="Kou-GCSw7aOlVnfjeSuj-64" target="Kou-GCSw7aOlVnfjeSuj-66" edge="1">
          <mxGeometry relative="1" as="geometry" />
        </mxCell>
        <mxCell id="Kou-GCSw7aOlVnfjeSuj-64" value="return filename;" style="shape=rectangle;perimeter=rectanglePerimeter;whiteSpace=wrap;html=1;fixedSize=1;fontSize=10;" parent="WIyWlLk6GJQsqaUBKTNV-1" vertex="1">
          <mxGeometry x="662.5" y="610" width="95" height="40" as="geometry" />
        </mxCell>
        <mxCell id="Kou-GCSw7aOlVnfjeSuj-66" value="конец" style="ellipse;whiteSpace=wrap;html=1;" parent="WIyWlLk6GJQsqaUBKTNV-1" vertex="1">
          <mxGeometry x="662.5" y="670" width="90" height="40" as="geometry" />
        </mxCell>
        <mxCell id="Kou-GCSw7aOlVnfjeSuj-69" style="edgeStyle=orthogonalEdgeStyle;rounded=0;orthogonalLoop=1;jettySize=auto;html=1;exitX=0.5;exitY=1;exitDx=0;exitDy=0;entryX=0.5;entryY=0;entryDx=0;entryDy=0;" parent="WIyWlLk6GJQsqaUBKTNV-1" source="Kou-GCSw7aOlVnfjeSuj-68" target="Kou-GCSw7aOlVnfjeSuj-15" edge="1">
          <mxGeometry relative="1" as="geometry" />
        </mxCell>
        <mxCell id="Kou-GCSw7aOlVnfjeSuj-68" value="&lt;div align=&quot;left&quot;&gt;cin.clear();&amp;nbsp;&amp;nbsp;&amp;nbsp;&amp;nbsp;&amp;nbsp;&amp;nbsp;&amp;nbsp;&amp;nbsp;&amp;nbsp;&amp;nbsp; cin.ignore(&lt;/div&gt;&lt;div align=&quot;left&quot;&gt;numeric_limits&lt;/div&gt;&lt;div align=&quot;left&quot;&gt;&amp;lt;streamsize&amp;gt;::max(), &#39;\n&#39;);&lt;/div&gt;" style="rounded=0;whiteSpace=wrap;html=1;fontSize=10;align=left;" parent="WIyWlLk6GJQsqaUBKTNV-1" vertex="1">
          <mxGeometry x="217.5" y="430" width="97.5" height="70" as="geometry" />
        </mxCell>
        <mxCell id="Kou-GCSw7aOlVnfjeSuj-72" style="edgeStyle=orthogonalEdgeStyle;rounded=0;orthogonalLoop=1;jettySize=auto;html=1;exitX=0.5;exitY=1;exitDx=0;exitDy=0;entryX=0.547;entryY=-0.057;entryDx=0;entryDy=0;entryPerimeter=0;" parent="WIyWlLk6GJQsqaUBKTNV-1" source="Kou-GCSw7aOlVnfjeSuj-70" target="Kou-GCSw7aOlVnfjeSuj-21" edge="1">
          <mxGeometry relative="1" as="geometry" />
        </mxCell>
        <mxCell id="Kou-GCSw7aOlVnfjeSuj-70" value="&lt;div align=&quot;left&quot;&gt;cin.ignore(&lt;/div&gt;&lt;div align=&quot;left&quot;&gt;numeric_limits&lt;/div&gt;&lt;div align=&quot;left&quot;&gt;&amp;lt;streamsize&amp;gt;::max(), &#39;\n&#39;);&lt;/div&gt;" style="rounded=0;whiteSpace=wrap;html=1;fontSize=10;align=left;" parent="WIyWlLk6GJQsqaUBKTNV-1" vertex="1">
          <mxGeometry x="157.5" y="590" width="97.5" height="50" as="geometry" />
        </mxCell>
        <mxCell id="Kou-GCSw7aOlVnfjeSuj-100" value="&lt;font size=&quot;1&quot;&gt;&lt;b style=&quot;font-size: 14px;&quot;&gt;checkOpenOutputFile&lt;/b&gt;&lt;/font&gt;" style="text;html=1;strokeColor=none;fillColor=none;align=center;verticalAlign=middle;whiteSpace=wrap;rounded=0;" parent="WIyWlLk6GJQsqaUBKTNV-1" vertex="1">
          <mxGeometry x="985" y="20" width="60" height="30" as="geometry" />
        </mxCell>
        <mxCell id="Kou-GCSw7aOlVnfjeSuj-101" style="edgeStyle=orthogonalEdgeStyle;rounded=0;orthogonalLoop=1;jettySize=auto;html=1;exitX=0.5;exitY=1;exitDx=0;exitDy=0;" parent="WIyWlLk6GJQsqaUBKTNV-1" source="Kou-GCSw7aOlVnfjeSuj-102" target="Kou-GCSw7aOlVnfjeSuj-104" edge="1">
          <mxGeometry relative="1" as="geometry" />
        </mxCell>
        <mxCell id="Kou-GCSw7aOlVnfjeSuj-102" value="начало" style="ellipse;whiteSpace=wrap;html=1;" parent="WIyWlLk6GJQsqaUBKTNV-1" vertex="1">
          <mxGeometry x="970" y="50" width="90" height="40" as="geometry" />
        </mxCell>
        <mxCell id="Kou-GCSw7aOlVnfjeSuj-103" style="edgeStyle=orthogonalEdgeStyle;rounded=0;orthogonalLoop=1;jettySize=auto;html=1;exitX=0.5;exitY=1;exitDx=0;exitDy=0;entryX=0.5;entryY=0;entryDx=0;entryDy=0;fontSize=10;" parent="WIyWlLk6GJQsqaUBKTNV-1" source="Kou-GCSw7aOlVnfjeSuj-104" target="Kou-GCSw7aOlVnfjeSuj-108" edge="1">
          <mxGeometry relative="1" as="geometry" />
        </mxCell>
        <mxCell id="Kou-GCSw7aOlVnfjeSuj-104" value="&lt;div style=&quot;font-size: 10px;&quot;&gt;&lt;font style=&quot;font-size: 10px;&quot;&gt;string message, filename;&lt;/font&gt;&lt;/div&gt;&lt;div style=&quot;font-size: 10px;&quot;&gt;&lt;font style=&quot;font-size: 10px;&quot;&gt;bool is_open=false;&lt;/font&gt;&lt;/div&gt;&lt;font style=&quot;font-size: 10px;&quot;&gt;&lt;font style=&quot;font-size: 10px;&quot;&gt;&lt;br style=&quot;font-size: 10px;&quot;&gt;&lt;/font&gt;&lt;/font&gt;" style="rounded=0;whiteSpace=wrap;html=1;fontSize=10;" parent="WIyWlLk6GJQsqaUBKTNV-1" vertex="1">
          <mxGeometry x="970" y="110" width="90" height="50" as="geometry" />
        </mxCell>
        <mxCell id="Kou-GCSw7aOlVnfjeSuj-105" style="edgeStyle=orthogonalEdgeStyle;rounded=0;orthogonalLoop=1;jettySize=auto;html=1;exitX=0.5;exitY=1;exitDx=0;exitDy=0;entryX=0.5;entryY=0;entryDx=0;entryDy=0;fontSize=10;" parent="WIyWlLk6GJQsqaUBKTNV-1" source="Kou-GCSw7aOlVnfjeSuj-106" target="Kou-GCSw7aOlVnfjeSuj-111" edge="1">
          <mxGeometry relative="1" as="geometry" />
        </mxCell>
        <mxCell id="Kou-GCSw7aOlVnfjeSuj-106" value="&lt;font style=&quot;font-size: 10px;&quot;&gt;ofstream fs(filename, ios::out);&lt;/font&gt;" style="rounded=0;whiteSpace=wrap;html=1;fontSize=10;" parent="WIyWlLk6GJQsqaUBKTNV-1" vertex="1">
          <mxGeometry x="970" y="245" width="90" height="40" as="geometry" />
        </mxCell>
        <mxCell id="Kou-GCSw7aOlVnfjeSuj-107" style="edgeStyle=orthogonalEdgeStyle;rounded=0;orthogonalLoop=1;jettySize=auto;html=1;exitX=0.5;exitY=1;exitDx=0;exitDy=0;entryX=0.5;entryY=0;entryDx=0;entryDy=0;fontSize=10;" parent="WIyWlLk6GJQsqaUBKTNV-1" source="Kou-GCSw7aOlVnfjeSuj-108" target="Kou-GCSw7aOlVnfjeSuj-106" edge="1">
          <mxGeometry relative="1" as="geometry" />
        </mxCell>
        <mxCell id="Kou-GCSw7aOlVnfjeSuj-108" value="&lt;font style=&quot;font-size: 10px;&quot;&gt;filename = &lt;/font&gt;&lt;div style=&quot;font-size: 10px;&quot;&gt;&lt;font style=&quot;font-size: 10px;&quot;&gt;inputString&lt;/font&gt;&lt;/div&gt;&lt;font style=&quot;font-size: 10px;&quot;&gt;(message)&lt;/font&gt;;" style="shape=process;whiteSpace=wrap;html=1;backgroundOutline=1;fontSize=10;" parent="WIyWlLk6GJQsqaUBKTNV-1" vertex="1">
          <mxGeometry x="970" y="185" width="90" height="45" as="geometry" />
        </mxCell>
        <mxCell id="Kou-GCSw7aOlVnfjeSuj-109" style="edgeStyle=orthogonalEdgeStyle;rounded=0;orthogonalLoop=1;jettySize=auto;html=1;exitX=1;exitY=0.5;exitDx=0;exitDy=0;fontSize=10;" parent="WIyWlLk6GJQsqaUBKTNV-1" source="Kou-GCSw7aOlVnfjeSuj-111" edge="1">
          <mxGeometry relative="1" as="geometry">
            <mxPoint x="1127.5" y="350" as="targetPoint" />
          </mxGeometry>
        </mxCell>
        <mxCell id="Kou-GCSw7aOlVnfjeSuj-110" style="edgeStyle=orthogonalEdgeStyle;rounded=0;orthogonalLoop=1;jettySize=auto;html=1;exitX=0.5;exitY=1;exitDx=0;exitDy=0;entryX=0.5;entryY=0;entryDx=0;entryDy=0;" parent="WIyWlLk6GJQsqaUBKTNV-1" source="Kou-GCSw7aOlVnfjeSuj-111" edge="1">
          <mxGeometry relative="1" as="geometry">
            <mxPoint x="1017.5" y="370" as="targetPoint" />
          </mxGeometry>
        </mxCell>
        <mxCell id="Kou-GCSw7aOlVnfjeSuj-111" value="&lt;font style=&quot;font-size: 10px;&quot;&gt;fs.is_open()&lt;/font&gt;" style="rhombus;whiteSpace=wrap;html=1;fontSize=10;" parent="WIyWlLk6GJQsqaUBKTNV-1" vertex="1">
          <mxGeometry x="972.5" y="300" width="85" height="40" as="geometry" />
        </mxCell>
        <mxCell id="Kou-GCSw7aOlVnfjeSuj-112" style="edgeStyle=orthogonalEdgeStyle;rounded=0;orthogonalLoop=1;jettySize=auto;html=1;exitX=0.5;exitY=1;exitDx=0;exitDy=0;entryX=0.5;entryY=0;entryDx=0;entryDy=0;" parent="WIyWlLk6GJQsqaUBKTNV-1" target="Kou-GCSw7aOlVnfjeSuj-115" edge="1">
          <mxGeometry relative="1" as="geometry">
            <mxPoint x="1127.5" y="390" as="sourcePoint" />
          </mxGeometry>
        </mxCell>
        <mxCell id="Kou-GCSw7aOlVnfjeSuj-114" style="edgeStyle=orthogonalEdgeStyle;rounded=0;orthogonalLoop=1;jettySize=auto;html=1;exitX=0.5;exitY=1;exitDx=0;exitDy=0;entryX=0.5;entryY=0;entryDx=0;entryDy=0;" parent="WIyWlLk6GJQsqaUBKTNV-1" source="Kou-GCSw7aOlVnfjeSuj-115" target="Kou-GCSw7aOlVnfjeSuj-122" edge="1">
          <mxGeometry relative="1" as="geometry">
            <Array as="points">
              <mxPoint x="1130" y="520" />
              <mxPoint x="1020" y="520" />
            </Array>
          </mxGeometry>
        </mxCell>
        <mxCell id="Kou-GCSw7aOlVnfjeSuj-115" value="is_open = false;" style="rounded=0;whiteSpace=wrap;html=1;fontSize=10;" parent="WIyWlLk6GJQsqaUBKTNV-1" vertex="1">
          <mxGeometry x="1085" y="420" width="90" height="40" as="geometry" />
        </mxCell>
        <mxCell id="Kou-GCSw7aOlVnfjeSuj-116" value="нет" style="text;html=1;strokeColor=none;fillColor=none;align=center;verticalAlign=middle;whiteSpace=wrap;rounded=0;" parent="WIyWlLk6GJQsqaUBKTNV-1" vertex="1">
          <mxGeometry x="1045" y="300" width="60" height="30" as="geometry" />
        </mxCell>
        <mxCell id="Kou-GCSw7aOlVnfjeSuj-119" value="да" style="text;html=1;strokeColor=none;fillColor=none;align=center;verticalAlign=middle;whiteSpace=wrap;rounded=0;" parent="WIyWlLk6GJQsqaUBKTNV-1" vertex="1">
          <mxGeometry x="972.5" y="330" width="60" height="30" as="geometry" />
        </mxCell>
        <mxCell id="Kou-GCSw7aOlVnfjeSuj-120" style="edgeStyle=orthogonalEdgeStyle;rounded=0;orthogonalLoop=1;jettySize=auto;html=1;exitX=0;exitY=0.5;exitDx=0;exitDy=0;" parent="WIyWlLk6GJQsqaUBKTNV-1" source="Kou-GCSw7aOlVnfjeSuj-122" edge="1">
          <mxGeometry relative="1" as="geometry">
            <mxPoint x="1010" y="170" as="targetPoint" />
            <Array as="points">
              <mxPoint x="950" y="590" />
              <mxPoint x="950" y="170" />
            </Array>
          </mxGeometry>
        </mxCell>
        <mxCell id="Kou-GCSw7aOlVnfjeSuj-121" style="edgeStyle=orthogonalEdgeStyle;rounded=0;orthogonalLoop=1;jettySize=auto;html=1;exitX=0.5;exitY=1;exitDx=0;exitDy=0;" parent="WIyWlLk6GJQsqaUBKTNV-1" source="Kou-GCSw7aOlVnfjeSuj-122" target="Kou-GCSw7aOlVnfjeSuj-125" edge="1">
          <mxGeometry relative="1" as="geometry" />
        </mxCell>
        <mxCell id="Kou-GCSw7aOlVnfjeSuj-122" value="!is_open" style="rhombus;whiteSpace=wrap;html=1;fontSize=10;" parent="WIyWlLk6GJQsqaUBKTNV-1" vertex="1">
          <mxGeometry x="977.5" y="570" width="85" height="40" as="geometry" />
        </mxCell>
        <mxCell id="Kou-GCSw7aOlVnfjeSuj-123" value="да" style="text;html=1;strokeColor=none;fillColor=none;align=center;verticalAlign=middle;whiteSpace=wrap;rounded=0;" parent="WIyWlLk6GJQsqaUBKTNV-1" vertex="1">
          <mxGeometry x="940" y="560" width="60" height="30" as="geometry" />
        </mxCell>
        <mxCell id="Kou-GCSw7aOlVnfjeSuj-124" style="edgeStyle=orthogonalEdgeStyle;rounded=0;orthogonalLoop=1;jettySize=auto;html=1;exitX=0.5;exitY=1;exitDx=0;exitDy=0;entryX=0.5;entryY=0;entryDx=0;entryDy=0;" parent="WIyWlLk6GJQsqaUBKTNV-1" source="Kou-GCSw7aOlVnfjeSuj-125" target="Kou-GCSw7aOlVnfjeSuj-126" edge="1">
          <mxGeometry relative="1" as="geometry" />
        </mxCell>
        <mxCell id="Kou-GCSw7aOlVnfjeSuj-125" value="return filename;" style="shape=rectangle;perimeter=rectanglePerimeter;&#xa;whiteSpace=wrap;html=1;fixedSize=1;fontSize=10;" parent="WIyWlLk6GJQsqaUBKTNV-1" vertex="1">
          <mxGeometry x="972.5" y="630" width="95" height="40" as="geometry" />
        </mxCell>
        <mxCell id="Kou-GCSw7aOlVnfjeSuj-126" value="конец" style="ellipse;whiteSpace=wrap;html=1;" parent="WIyWlLk6GJQsqaUBKTNV-1" vertex="1">
          <mxGeometry x="972.5" y="690" width="90" height="40" as="geometry" />
        </mxCell>
        <mxCell id="Kou-GCSw7aOlVnfjeSuj-128" value="&lt;font size=&quot;1&quot;&gt;&lt;b&gt;outContent&lt;/b&gt;&lt;/font&gt;" style="text;html=1;strokeColor=none;fillColor=none;align=center;verticalAlign=middle;whiteSpace=wrap;rounded=0;" parent="WIyWlLk6GJQsqaUBKTNV-1" vertex="1">
          <mxGeometry x="1275" y="20" width="60" height="30" as="geometry" />
        </mxCell>
        <mxCell id="Kou-GCSw7aOlVnfjeSuj-129" style="edgeStyle=orthogonalEdgeStyle;rounded=0;orthogonalLoop=1;jettySize=auto;html=1;exitX=0.5;exitY=1;exitDx=0;exitDy=0;" parent="WIyWlLk6GJQsqaUBKTNV-1" source="Kou-GCSw7aOlVnfjeSuj-130" target="Kou-GCSw7aOlVnfjeSuj-131" edge="1">
          <mxGeometry relative="1" as="geometry" />
        </mxCell>
        <mxCell id="Kou-GCSw7aOlVnfjeSuj-130" value="начало" style="ellipse;whiteSpace=wrap;html=1;" parent="WIyWlLk6GJQsqaUBKTNV-1" vertex="1">
          <mxGeometry x="1260" y="50" width="90" height="40" as="geometry" />
        </mxCell>
        <mxCell id="Kou-GCSw7aOlVnfjeSuj-133" style="edgeStyle=orthogonalEdgeStyle;rounded=0;orthogonalLoop=1;jettySize=auto;html=1;exitX=0.5;exitY=1;exitDx=0;exitDy=0;entryX=0.5;entryY=0;entryDx=0;entryDy=0;" parent="WIyWlLk6GJQsqaUBKTNV-1" source="Kou-GCSw7aOlVnfjeSuj-131" target="Kou-GCSw7aOlVnfjeSuj-132" edge="1">
          <mxGeometry relative="1" as="geometry" />
        </mxCell>
        <mxCell id="Kou-GCSw7aOlVnfjeSuj-131" value="&lt;div style=&quot;font-size: 10px;&quot;&gt;&lt;font style=&quot;font-size: 10px;&quot;&gt;string** mass; int mass_length;&lt;br&gt;&lt;/font&gt;&lt;/div&gt;" style="rounded=0;whiteSpace=wrap;html=1;fontSize=10;" parent="WIyWlLk6GJQsqaUBKTNV-1" vertex="1">
          <mxGeometry x="1260" y="110" width="90" height="50" as="geometry" />
        </mxCell>
        <mxCell id="Kou-GCSw7aOlVnfjeSuj-136" style="edgeStyle=orthogonalEdgeStyle;rounded=0;orthogonalLoop=1;jettySize=auto;html=1;exitX=0.5;exitY=1;exitDx=0;exitDy=0;entryX=0.5;entryY=0;entryDx=0;entryDy=0;" parent="WIyWlLk6GJQsqaUBKTNV-1" source="Kou-GCSw7aOlVnfjeSuj-132" target="Kou-GCSw7aOlVnfjeSuj-135" edge="1">
          <mxGeometry relative="1" as="geometry" />
        </mxCell>
        <mxCell id="Kou-GCSw7aOlVnfjeSuj-132" value="&lt;font style=&quot;font-size: 10px;&quot;&gt;for i:=0 to mass_length&lt;br&gt;&lt;/font&gt;" style="shape=hexagon;perimeter=hexagonPerimeter2;whiteSpace=wrap;html=1;fixedSize=1;" parent="WIyWlLk6GJQsqaUBKTNV-1" vertex="1">
          <mxGeometry x="1260" y="170" width="90" height="45" as="geometry" />
        </mxCell>
        <mxCell id="Kou-GCSw7aOlVnfjeSuj-139" style="edgeStyle=orthogonalEdgeStyle;rounded=0;orthogonalLoop=1;jettySize=auto;html=1;exitX=0;exitY=0.5;exitDx=0;exitDy=0;entryX=0.5;entryY=0;entryDx=0;entryDy=0;" parent="WIyWlLk6GJQsqaUBKTNV-1" source="Kou-GCSw7aOlVnfjeSuj-132" target="Kou-GCSw7aOlVnfjeSuj-138" edge="1">
          <mxGeometry relative="1" as="geometry">
            <Array as="points">
              <mxPoint x="1240" y="193" />
              <mxPoint x="1240" y="300" />
              <mxPoint x="1303" y="300" />
            </Array>
          </mxGeometry>
        </mxCell>
        <mxCell id="AVf6iye5ho6WVIr8OHe0-0" style="edgeStyle=orthogonalEdgeStyle;rounded=0;orthogonalLoop=1;jettySize=auto;html=1;exitX=0.5;exitY=1;exitDx=0;exitDy=0;entryX=1;entryY=0.5;entryDx=0;entryDy=0;" parent="WIyWlLk6GJQsqaUBKTNV-1" source="Kou-GCSw7aOlVnfjeSuj-135" target="Kou-GCSw7aOlVnfjeSuj-132" edge="1">
          <mxGeometry relative="1" as="geometry">
            <Array as="points">
              <mxPoint x="1303" y="290" />
              <mxPoint x="1370" y="290" />
              <mxPoint x="1370" y="193" />
            </Array>
          </mxGeometry>
        </mxCell>
        <mxCell id="Kou-GCSw7aOlVnfjeSuj-135" value="&lt;div&gt;Вывод &lt;br&gt;&lt;/div&gt;&lt;div&gt;mass[i][0]&lt;/div&gt;" style="shape=parallelogram;perimeter=parallelogramPerimeter;whiteSpace=wrap;html=1;fixedSize=1;fontSize=10;" parent="WIyWlLk6GJQsqaUBKTNV-1" vertex="1">
          <mxGeometry x="1255" y="240" width="95" height="40" as="geometry" />
        </mxCell>
        <mxCell id="Kou-GCSw7aOlVnfjeSuj-138" value="конец" style="ellipse;whiteSpace=wrap;html=1;" parent="WIyWlLk6GJQsqaUBKTNV-1" vertex="1">
          <mxGeometry x="1257.5" y="325" width="90" height="40" as="geometry" />
        </mxCell>
        <mxCell id="Kou-GCSw7aOlVnfjeSuj-141" value="&lt;b&gt;deleteSymbols&lt;/b&gt;" style="text;html=1;strokeColor=none;fillColor=none;align=center;verticalAlign=middle;whiteSpace=wrap;rounded=0;" parent="WIyWlLk6GJQsqaUBKTNV-1" vertex="1">
          <mxGeometry x="1415" y="20" width="60" height="30" as="geometry" />
        </mxCell>
        <mxCell id="Kou-GCSw7aOlVnfjeSuj-142" value="начало" style="ellipse;whiteSpace=wrap;html=1;" parent="WIyWlLk6GJQsqaUBKTNV-1" vertex="1">
          <mxGeometry x="1400" y="50" width="90" height="40" as="geometry" />
        </mxCell>
        <mxCell id="Kou-GCSw7aOlVnfjeSuj-144" style="edgeStyle=orthogonalEdgeStyle;rounded=0;orthogonalLoop=1;jettySize=auto;html=1;exitX=0.5;exitY=1;exitDx=0;exitDy=0;" parent="WIyWlLk6GJQsqaUBKTNV-1" target="Kou-GCSw7aOlVnfjeSuj-145" edge="1">
          <mxGeometry relative="1" as="geometry">
            <mxPoint x="1445" y="90" as="sourcePoint" />
          </mxGeometry>
        </mxCell>
        <mxCell id="Kou-GCSw7aOlVnfjeSuj-147" style="edgeStyle=orthogonalEdgeStyle;rounded=0;orthogonalLoop=1;jettySize=auto;html=1;exitX=0.5;exitY=1;exitDx=0;exitDy=0;entryX=0.5;entryY=0;entryDx=0;entryDy=0;" parent="WIyWlLk6GJQsqaUBKTNV-1" source="Kou-GCSw7aOlVnfjeSuj-145" target="Kou-GCSw7aOlVnfjeSuj-146" edge="1">
          <mxGeometry relative="1" as="geometry" />
        </mxCell>
        <mxCell id="Kou-GCSw7aOlVnfjeSuj-145" value="&lt;div style=&quot;font-size: 10px;&quot;&gt;string&amp;nbsp;&amp;amp;input, string&amp;nbsp;substring, int&amp;nbsp;count2&lt;br&gt;&lt;/div&gt;" style="rounded=0;whiteSpace=wrap;html=1;fontSize=10;" parent="WIyWlLk6GJQsqaUBKTNV-1" vertex="1">
          <mxGeometry x="1400" y="110" width="90" height="50" as="geometry" />
        </mxCell>
        <mxCell id="Kou-GCSw7aOlVnfjeSuj-149" style="edgeStyle=orthogonalEdgeStyle;rounded=0;orthogonalLoop=1;jettySize=auto;html=1;exitX=0.5;exitY=1;exitDx=0;exitDy=0;entryX=0.5;entryY=0;entryDx=0;entryDy=0;" parent="WIyWlLk6GJQsqaUBKTNV-1" source="Kou-GCSw7aOlVnfjeSuj-146" target="Kou-GCSw7aOlVnfjeSuj-148" edge="1">
          <mxGeometry relative="1" as="geometry" />
        </mxCell>
        <mxCell id="Kou-GCSw7aOlVnfjeSuj-146" value="i = input.find(substring);" style="rounded=0;whiteSpace=wrap;html=1;fontSize=10;" parent="WIyWlLk6GJQsqaUBKTNV-1" vertex="1">
          <mxGeometry x="1400" y="170" width="90" height="40" as="geometry" />
        </mxCell>
        <mxCell id="Kou-GCSw7aOlVnfjeSuj-153" style="edgeStyle=orthogonalEdgeStyle;rounded=0;orthogonalLoop=1;jettySize=auto;html=1;exitX=0.5;exitY=1;exitDx=0;exitDy=0;entryX=0.5;entryY=0;entryDx=0;entryDy=0;" parent="WIyWlLk6GJQsqaUBKTNV-1" source="Kou-GCSw7aOlVnfjeSuj-148" target="Kou-GCSw7aOlVnfjeSuj-150" edge="1">
          <mxGeometry relative="1" as="geometry" />
        </mxCell>
        <mxCell id="Kou-GCSw7aOlVnfjeSuj-161" style="edgeStyle=orthogonalEdgeStyle;rounded=0;orthogonalLoop=1;jettySize=auto;html=1;exitX=1;exitY=0.5;exitDx=0;exitDy=0;entryX=0.5;entryY=0;entryDx=0;entryDy=0;" parent="WIyWlLk6GJQsqaUBKTNV-1" source="Kou-GCSw7aOlVnfjeSuj-148" target="Kou-GCSw7aOlVnfjeSuj-159" edge="1">
          <mxGeometry relative="1" as="geometry">
            <mxPoint x="1450" y="510" as="targetPoint" />
            <Array as="points">
              <mxPoint x="1640" y="240" />
              <mxPoint x="1640" y="480" />
              <mxPoint x="1445" y="480" />
            </Array>
          </mxGeometry>
        </mxCell>
        <mxCell id="Kou-GCSw7aOlVnfjeSuj-148" value="i==string::npos" style="rhombus;whiteSpace=wrap;html=1;fontSize=10;" parent="WIyWlLk6GJQsqaUBKTNV-1" vertex="1">
          <mxGeometry x="1402.5" y="220" width="85" height="40" as="geometry" />
        </mxCell>
        <mxCell id="Kou-GCSw7aOlVnfjeSuj-152" style="edgeStyle=orthogonalEdgeStyle;rounded=0;orthogonalLoop=1;jettySize=auto;html=1;exitX=1;exitY=0.5;exitDx=0;exitDy=0;" parent="WIyWlLk6GJQsqaUBKTNV-1" source="Kou-GCSw7aOlVnfjeSuj-150" target="Kou-GCSw7aOlVnfjeSuj-151" edge="1">
          <mxGeometry relative="1" as="geometry" />
        </mxCell>
        <mxCell id="Kou-GCSw7aOlVnfjeSuj-155" style="edgeStyle=orthogonalEdgeStyle;rounded=0;orthogonalLoop=1;jettySize=auto;html=1;exitX=0.5;exitY=1;exitDx=0;exitDy=0;entryX=0.5;entryY=0;entryDx=0;entryDy=0;" parent="WIyWlLk6GJQsqaUBKTNV-1" source="Kou-GCSw7aOlVnfjeSuj-150" target="Kou-GCSw7aOlVnfjeSuj-154" edge="1">
          <mxGeometry relative="1" as="geometry" />
        </mxCell>
        <mxCell id="Kou-GCSw7aOlVnfjeSuj-150" value="i&amp;lt;count2" style="rhombus;whiteSpace=wrap;html=1;fontSize=10;" parent="WIyWlLk6GJQsqaUBKTNV-1" vertex="1">
          <mxGeometry x="1402.5" y="280" width="85" height="40" as="geometry" />
        </mxCell>
        <mxCell id="Kou-GCSw7aOlVnfjeSuj-156" style="edgeStyle=orthogonalEdgeStyle;rounded=0;orthogonalLoop=1;jettySize=auto;html=1;exitX=0.5;exitY=1;exitDx=0;exitDy=0;entryX=0.5;entryY=0;entryDx=0;entryDy=0;" parent="WIyWlLk6GJQsqaUBKTNV-1" source="Kou-GCSw7aOlVnfjeSuj-151" target="Kou-GCSw7aOlVnfjeSuj-154" edge="1">
          <mxGeometry relative="1" as="geometry" />
        </mxCell>
        <mxCell id="Kou-GCSw7aOlVnfjeSuj-151" value="count2=i;" style="rounded=0;whiteSpace=wrap;html=1;fontSize=10;" parent="WIyWlLk6GJQsqaUBKTNV-1" vertex="1">
          <mxGeometry x="1520" y="340" width="90" height="40" as="geometry" />
        </mxCell>
        <mxCell id="Kou-GCSw7aOlVnfjeSuj-160" style="edgeStyle=orthogonalEdgeStyle;rounded=0;orthogonalLoop=1;jettySize=auto;html=1;exitX=0.5;exitY=1;exitDx=0;exitDy=0;entryX=0.5;entryY=0;entryDx=0;entryDy=0;" parent="WIyWlLk6GJQsqaUBKTNV-1" source="Kou-GCSw7aOlVnfjeSuj-154" target="Kou-GCSw7aOlVnfjeSuj-159" edge="1">
          <mxGeometry relative="1" as="geometry" />
        </mxCell>
        <mxCell id="Kou-GCSw7aOlVnfjeSuj-154" value="input.erase(i-count2, count2);" style="rounded=0;whiteSpace=wrap;html=1;fontSize=10;" parent="WIyWlLk6GJQsqaUBKTNV-1" vertex="1">
          <mxGeometry x="1400" y="420" width="90" height="40" as="geometry" />
        </mxCell>
        <mxCell id="Kou-GCSw7aOlVnfjeSuj-157" value="нет" style="text;html=1;strokeColor=none;fillColor=none;align=center;verticalAlign=middle;whiteSpace=wrap;rounded=0;" parent="WIyWlLk6GJQsqaUBKTNV-1" vertex="1">
          <mxGeometry x="1400" y="315" width="60" height="30" as="geometry" />
        </mxCell>
        <mxCell id="Kou-GCSw7aOlVnfjeSuj-158" value="нет" style="text;html=1;strokeColor=none;fillColor=none;align=center;verticalAlign=middle;whiteSpace=wrap;rounded=0;" parent="WIyWlLk6GJQsqaUBKTNV-1" vertex="1">
          <mxGeometry x="1440" y="250" width="60" height="30" as="geometry" />
        </mxCell>
        <mxCell id="Kou-GCSw7aOlVnfjeSuj-159" value="конец" style="ellipse;whiteSpace=wrap;html=1;" parent="WIyWlLk6GJQsqaUBKTNV-1" vertex="1">
          <mxGeometry x="1400" y="520" width="90" height="40" as="geometry" />
        </mxCell>
        <mxCell id="Kou-GCSw7aOlVnfjeSuj-162" value="да" style="text;html=1;strokeColor=none;fillColor=none;align=center;verticalAlign=middle;whiteSpace=wrap;rounded=0;" parent="WIyWlLk6GJQsqaUBKTNV-1" vertex="1">
          <mxGeometry x="1475" y="215" width="60" height="30" as="geometry" />
        </mxCell>
        <mxCell id="Kou-GCSw7aOlVnfjeSuj-167" value="да" style="text;html=1;strokeColor=none;fillColor=none;align=center;verticalAlign=middle;whiteSpace=wrap;rounded=0;" parent="WIyWlLk6GJQsqaUBKTNV-1" vertex="1">
          <mxGeometry x="1475" y="270" width="60" height="30" as="geometry" />
        </mxCell>
        <mxCell id="3QOpX5osjgXmDj752tih-0" value="&lt;b&gt;cycleDelete&lt;/b&gt;" style="text;html=1;strokeColor=none;fillColor=none;align=center;verticalAlign=middle;whiteSpace=wrap;rounded=0;" parent="WIyWlLk6GJQsqaUBKTNV-1" vertex="1">
          <mxGeometry x="1775" y="40" width="60" height="30" as="geometry" />
        </mxCell>
        <mxCell id="3QOpX5osjgXmDj752tih-1" value="начало" style="ellipse;whiteSpace=wrap;html=1;" parent="WIyWlLk6GJQsqaUBKTNV-1" vertex="1">
          <mxGeometry x="1760" y="70" width="90" height="40" as="geometry" />
        </mxCell>
        <mxCell id="3QOpX5osjgXmDj752tih-2" style="edgeStyle=orthogonalEdgeStyle;rounded=0;orthogonalLoop=1;jettySize=auto;html=1;exitX=0.5;exitY=1;exitDx=0;exitDy=0;" parent="WIyWlLk6GJQsqaUBKTNV-1" target="3QOpX5osjgXmDj752tih-3" edge="1">
          <mxGeometry relative="1" as="geometry">
            <mxPoint x="1805" y="110" as="sourcePoint" />
          </mxGeometry>
        </mxCell>
        <mxCell id="3QOpX5osjgXmDj752tih-5" style="edgeStyle=orthogonalEdgeStyle;rounded=0;orthogonalLoop=1;jettySize=auto;html=1;exitX=0.5;exitY=1;exitDx=0;exitDy=0;entryX=0.5;entryY=0;entryDx=0;entryDy=0;" parent="WIyWlLk6GJQsqaUBKTNV-1" source="3QOpX5osjgXmDj752tih-3" target="3QOpX5osjgXmDj752tih-4" edge="1">
          <mxGeometry relative="1" as="geometry" />
        </mxCell>
        <mxCell id="3QOpX5osjgXmDj752tih-3" value="string** mass, int mass_length;&lt;br&gt;int under, count2&lt;span style=&quot;background-color: initial;&quot;&gt;;string substring;&lt;/span&gt;" style="rounded=0;whiteSpace=wrap;html=1;fontSize=10;" parent="WIyWlLk6GJQsqaUBKTNV-1" vertex="1">
          <mxGeometry x="1750" y="130" width="110" height="70" as="geometry" />
        </mxCell>
        <mxCell id="3QOpX5osjgXmDj752tih-7" style="edgeStyle=orthogonalEdgeStyle;rounded=0;orthogonalLoop=1;jettySize=auto;html=1;exitX=0.5;exitY=1;exitDx=0;exitDy=0;entryX=0.5;entryY=0;entryDx=0;entryDy=0;" parent="WIyWlLk6GJQsqaUBKTNV-1" source="3QOpX5osjgXmDj752tih-4" target="3QOpX5osjgXmDj752tih-6" edge="1">
          <mxGeometry relative="1" as="geometry" />
        </mxCell>
        <mxCell id="3QOpX5osjgXmDj752tih-4" value="&lt;font style=&quot;font-size: 10px;&quot;&gt;substring = &lt;/font&gt;&lt;div style=&quot;font-size: 10px;&quot;&gt;&lt;font style=&quot;font-size: 10px;&quot;&gt;inputString&lt;/font&gt;&lt;/div&gt;&lt;font style=&quot;font-size: 10px;&quot;&gt;(&quot;Введите подстроку&quot;)&lt;/font&gt;;" style="shape=process;whiteSpace=wrap;html=1;backgroundOutline=1;fontSize=10;" parent="WIyWlLk6GJQsqaUBKTNV-1" vertex="1">
          <mxGeometry x="1750" y="220" width="110" height="70" as="geometry" />
        </mxCell>
        <mxCell id="3QOpX5osjgXmDj752tih-9" style="edgeStyle=orthogonalEdgeStyle;rounded=0;orthogonalLoop=1;jettySize=auto;html=1;exitX=0.5;exitY=1;exitDx=0;exitDy=0;entryX=0.5;entryY=0;entryDx=0;entryDy=0;" parent="WIyWlLk6GJQsqaUBKTNV-1" source="3QOpX5osjgXmDj752tih-6" target="3QOpX5osjgXmDj752tih-8" edge="1">
          <mxGeometry relative="1" as="geometry" />
        </mxCell>
        <mxCell id="3QOpX5osjgXmDj752tih-6" value="&lt;font style=&quot;font-size: 10px;&quot;&gt;count2 = &lt;/font&gt;&lt;div style=&quot;font-size: 10px;&quot;&gt;&lt;font style=&quot;font-size: 10px;&quot;&gt;inputInt&lt;/font&gt;&lt;/div&gt;&lt;font style=&quot;font-size: 10px;&quot;&gt;(&quot;Введите число символов для удаления&quot;, 0)&lt;/font&gt;;" style="shape=process;whiteSpace=wrap;html=1;backgroundOutline=1;fontSize=10;" parent="WIyWlLk6GJQsqaUBKTNV-1" vertex="1">
          <mxGeometry x="1750" y="315" width="110" height="70" as="geometry" />
        </mxCell>
        <mxCell id="3QOpX5osjgXmDj752tih-16" style="edgeStyle=orthogonalEdgeStyle;rounded=0;orthogonalLoop=1;jettySize=auto;html=1;exitX=0.5;exitY=1;exitDx=0;exitDy=0;entryX=0.5;entryY=0;entryDx=0;entryDy=0;" parent="WIyWlLk6GJQsqaUBKTNV-1" source="3QOpX5osjgXmDj752tih-8" target="3QOpX5osjgXmDj752tih-11" edge="1">
          <mxGeometry relative="1" as="geometry" />
        </mxCell>
        <mxCell id="3QOpX5osjgXmDj752tih-8" value="Вывод&amp;nbsp;&quot;Новые строки:&quot;" style="shape=parallelogram;perimeter=parallelogramPerimeter;whiteSpace=wrap;html=1;fixedSize=1;fontSize=10;" parent="WIyWlLk6GJQsqaUBKTNV-1" vertex="1">
          <mxGeometry x="1750" y="410" width="110" height="70" as="geometry" />
        </mxCell>
        <mxCell id="3QOpX5osjgXmDj752tih-18" value="да" style="edgeStyle=orthogonalEdgeStyle;rounded=0;orthogonalLoop=1;jettySize=auto;html=1;exitX=0.5;exitY=1;exitDx=0;exitDy=0;" parent="WIyWlLk6GJQsqaUBKTNV-1" source="3QOpX5osjgXmDj752tih-11" target="3QOpX5osjgXmDj752tih-17" edge="1">
          <mxGeometry relative="1" as="geometry" />
        </mxCell>
        <mxCell id="AVf6iye5ho6WVIr8OHe0-9" style="edgeStyle=orthogonalEdgeStyle;rounded=0;orthogonalLoop=1;jettySize=auto;html=1;exitX=0;exitY=0.5;exitDx=0;exitDy=0;" parent="WIyWlLk6GJQsqaUBKTNV-1" source="3QOpX5osjgXmDj752tih-11" target="3QOpX5osjgXmDj752tih-15" edge="1">
          <mxGeometry relative="1" as="geometry">
            <Array as="points">
              <mxPoint x="1730" y="525" />
              <mxPoint x="1730" y="670" />
              <mxPoint x="1803" y="670" />
            </Array>
          </mxGeometry>
        </mxCell>
        <mxCell id="3QOpX5osjgXmDj752tih-11" value="&lt;font style=&quot;font-size: 10px;&quot;&gt;for i:=0 to mass_length&lt;br&gt;&lt;/font&gt;" style="shape=hexagon;perimeter=hexagonPerimeter2;whiteSpace=wrap;html=1;fixedSize=1;" parent="WIyWlLk6GJQsqaUBKTNV-1" vertex="1">
          <mxGeometry x="1750" y="500" width="110" height="50" as="geometry" />
        </mxCell>
        <mxCell id="3QOpX5osjgXmDj752tih-15" value="конец" style="ellipse;whiteSpace=wrap;html=1;" parent="WIyWlLk6GJQsqaUBKTNV-1" vertex="1">
          <mxGeometry x="1757.5" y="700" width="90" height="40" as="geometry" />
        </mxCell>
        <mxCell id="AVf6iye5ho6WVIr8OHe0-10" style="edgeStyle=orthogonalEdgeStyle;rounded=0;orthogonalLoop=1;jettySize=auto;html=1;exitX=0.5;exitY=1;exitDx=0;exitDy=0;entryX=1;entryY=0.5;entryDx=0;entryDy=0;" parent="WIyWlLk6GJQsqaUBKTNV-1" source="3QOpX5osjgXmDj752tih-17" target="3QOpX5osjgXmDj752tih-11" edge="1">
          <mxGeometry relative="1" as="geometry">
            <Array as="points">
              <mxPoint x="1805" y="660" />
              <mxPoint x="1890" y="660" />
              <mxPoint x="1890" y="560" />
              <mxPoint x="1880" y="560" />
              <mxPoint x="1880" y="525" />
            </Array>
          </mxGeometry>
        </mxCell>
        <mxCell id="3QOpX5osjgXmDj752tih-17" value="deleteSymbols(mass&lt;br&gt;[i][0], substring, count2);" style="shape=process;whiteSpace=wrap;html=1;backgroundOutline=1;fontSize=10;" parent="WIyWlLk6GJQsqaUBKTNV-1" vertex="1">
          <mxGeometry x="1750" y="570" width="110" height="70" as="geometry" />
        </mxCell>
        <mxCell id="3QOpX5osjgXmDj752tih-22" value="&lt;font size=&quot;1&quot;&gt;&lt;b&gt;SaveFile&lt;/b&gt;&lt;/font&gt;" style="text;html=1;strokeColor=none;fillColor=none;align=center;verticalAlign=middle;whiteSpace=wrap;rounded=0;" parent="WIyWlLk6GJQsqaUBKTNV-1" vertex="1">
          <mxGeometry x="1975" y="45" width="60" height="30" as="geometry" />
        </mxCell>
        <mxCell id="3QOpX5osjgXmDj752tih-23" style="edgeStyle=orthogonalEdgeStyle;rounded=0;orthogonalLoop=1;jettySize=auto;html=1;exitX=0.5;exitY=1;exitDx=0;exitDy=0;" parent="WIyWlLk6GJQsqaUBKTNV-1" source="3QOpX5osjgXmDj752tih-24" target="3QOpX5osjgXmDj752tih-25" edge="1">
          <mxGeometry relative="1" as="geometry" />
        </mxCell>
        <mxCell id="3QOpX5osjgXmDj752tih-24" value="начало" style="ellipse;whiteSpace=wrap;html=1;" parent="WIyWlLk6GJQsqaUBKTNV-1" vertex="1">
          <mxGeometry x="1960" y="75" width="90" height="40" as="geometry" />
        </mxCell>
        <mxCell id="3QOpX5osjgXmDj752tih-28" style="edgeStyle=orthogonalEdgeStyle;rounded=0;orthogonalLoop=1;jettySize=auto;html=1;exitX=0.5;exitY=1;exitDx=0;exitDy=0;" parent="WIyWlLk6GJQsqaUBKTNV-1" source="3QOpX5osjgXmDj752tih-25" target="3QOpX5osjgXmDj752tih-26" edge="1">
          <mxGeometry relative="1" as="geometry" />
        </mxCell>
        <mxCell id="3QOpX5osjgXmDj752tih-25" value="&lt;div style=&quot;font-size: 10px;&quot;&gt;&lt;font style=&quot;font-size: 10px;&quot;&gt;string* mass;&lt;/font&gt;&lt;/div&gt;&lt;div style=&quot;font-size: 10px;&quot;&gt;&lt;font style=&quot;font-size: 10px;&quot;&gt;string filename;&lt;br&gt; int mass_length&lt;/font&gt;&lt;span style=&quot;background-color: initial;&quot;&gt;;&lt;/span&gt;&lt;/div&gt;" style="rounded=0;whiteSpace=wrap;html=1;fontSize=10;" parent="WIyWlLk6GJQsqaUBKTNV-1" vertex="1">
          <mxGeometry x="1960" y="135" width="90" height="50" as="geometry" />
        </mxCell>
        <mxCell id="3QOpX5osjgXmDj752tih-30" style="edgeStyle=orthogonalEdgeStyle;rounded=0;orthogonalLoop=1;jettySize=auto;html=1;exitX=0.5;exitY=1;exitDx=0;exitDy=0;" parent="WIyWlLk6GJQsqaUBKTNV-1" source="3QOpX5osjgXmDj752tih-26" target="3QOpX5osjgXmDj752tih-29" edge="1">
          <mxGeometry relative="1" as="geometry" />
        </mxCell>
        <mxCell id="3QOpX5osjgXmDj752tih-26" value="&lt;div&gt;&lt;font style=&quot;font-size: 8px;&quot;&gt;filename = checkOpenOutputFile&lt;/font&gt;&lt;/div&gt;&lt;div&gt;&lt;font style=&quot;font-size: 8px;&quot;&gt;(&quot;Введите название файла &quot;);&lt;/font&gt;&lt;/div&gt;" style="shape=process;whiteSpace=wrap;html=1;backgroundOutline=1;fontSize=10;" parent="WIyWlLk6GJQsqaUBKTNV-1" vertex="1">
          <mxGeometry x="1955" y="210" width="100" height="45" as="geometry" />
        </mxCell>
        <mxCell id="3QOpX5osjgXmDj752tih-35" style="edgeStyle=orthogonalEdgeStyle;rounded=0;orthogonalLoop=1;jettySize=auto;html=1;exitX=0.5;exitY=1;exitDx=0;exitDy=0;" parent="WIyWlLk6GJQsqaUBKTNV-1" source="3QOpX5osjgXmDj752tih-29" target="3QOpX5osjgXmDj752tih-32" edge="1">
          <mxGeometry relative="1" as="geometry" />
        </mxCell>
        <mxCell id="3QOpX5osjgXmDj752tih-29" value="ofstream fout(filename, ios::out);&amp;nbsp; " style="rounded=0;whiteSpace=wrap;html=1;fontSize=10;" parent="WIyWlLk6GJQsqaUBKTNV-1" vertex="1">
          <mxGeometry x="1960" y="270" width="90" height="40" as="geometry" />
        </mxCell>
        <mxCell id="3QOpX5osjgXmDj752tih-31" style="edgeStyle=orthogonalEdgeStyle;rounded=0;orthogonalLoop=1;jettySize=auto;html=1;exitX=0.5;exitY=1;exitDx=0;exitDy=0;entryX=0.5;entryY=0;entryDx=0;entryDy=0;" parent="WIyWlLk6GJQsqaUBKTNV-1" source="3QOpX5osjgXmDj752tih-32" target="3QOpX5osjgXmDj752tih-34" edge="1">
          <mxGeometry relative="1" as="geometry" />
        </mxCell>
        <mxCell id="AVf6iye5ho6WVIr8OHe0-6" style="edgeStyle=orthogonalEdgeStyle;rounded=0;orthogonalLoop=1;jettySize=auto;html=1;exitX=0;exitY=0.5;exitDx=0;exitDy=0;" parent="WIyWlLk6GJQsqaUBKTNV-1" source="3QOpX5osjgXmDj752tih-32" target="3QOpX5osjgXmDj752tih-36" edge="1">
          <mxGeometry relative="1" as="geometry">
            <Array as="points">
              <mxPoint x="1940" y="348" />
              <mxPoint x="1940" y="450" />
              <mxPoint x="2003" y="450" />
            </Array>
          </mxGeometry>
        </mxCell>
        <mxCell id="3QOpX5osjgXmDj752tih-32" value="&lt;font style=&quot;font-size: 10px;&quot;&gt;for i:=0 to mass_length&lt;br&gt;&lt;/font&gt;" style="shape=hexagon;perimeter=hexagonPerimeter2;whiteSpace=wrap;html=1;fixedSize=1;" parent="WIyWlLk6GJQsqaUBKTNV-1" vertex="1">
          <mxGeometry x="1960" y="325" width="90" height="45" as="geometry" />
        </mxCell>
        <mxCell id="AVf6iye5ho6WVIr8OHe0-5" style="edgeStyle=orthogonalEdgeStyle;rounded=0;orthogonalLoop=1;jettySize=auto;html=1;exitX=0.5;exitY=1;exitDx=0;exitDy=0;entryX=1;entryY=0.5;entryDx=0;entryDy=0;" parent="WIyWlLk6GJQsqaUBKTNV-1" source="3QOpX5osjgXmDj752tih-34" target="3QOpX5osjgXmDj752tih-32" edge="1">
          <mxGeometry relative="1" as="geometry">
            <Array as="points">
              <mxPoint x="2003" y="430" />
              <mxPoint x="2003" y="440" />
              <mxPoint x="2070" y="440" />
              <mxPoint x="2070" y="348" />
            </Array>
          </mxGeometry>
        </mxCell>
        <mxCell id="3QOpX5osjgXmDj752tih-34" value="&lt;div&gt;Вывод в файл &lt;br&gt;&lt;/div&gt;&lt;div&gt;mass[i][0]&lt;/div&gt;" style="shape=parallelogram;perimeter=parallelogramPerimeter;whiteSpace=wrap;html=1;fixedSize=1;fontSize=10;" parent="WIyWlLk6GJQsqaUBKTNV-1" vertex="1">
          <mxGeometry x="1952.5" y="390" width="95" height="40" as="geometry" />
        </mxCell>
        <mxCell id="3QOpX5osjgXmDj752tih-39" style="edgeStyle=orthogonalEdgeStyle;rounded=0;orthogonalLoop=1;jettySize=auto;html=1;exitX=0.5;exitY=1;exitDx=0;exitDy=0;entryX=0.5;entryY=0;entryDx=0;entryDy=0;" parent="WIyWlLk6GJQsqaUBKTNV-1" source="3QOpX5osjgXmDj752tih-36" target="3QOpX5osjgXmDj752tih-38" edge="1">
          <mxGeometry relative="1" as="geometry" />
        </mxCell>
        <mxCell id="3QOpX5osjgXmDj752tih-36" value="fout.close();" style="rounded=0;whiteSpace=wrap;html=1;fontSize=10;" parent="WIyWlLk6GJQsqaUBKTNV-1" vertex="1">
          <mxGeometry x="1957.5" y="470" width="90" height="40" as="geometry" />
        </mxCell>
        <mxCell id="3QOpX5osjgXmDj752tih-42" style="edgeStyle=orthogonalEdgeStyle;rounded=0;orthogonalLoop=1;jettySize=auto;html=1;exitX=0.5;exitY=1;exitDx=0;exitDy=0;entryX=0.555;entryY=0.025;entryDx=0;entryDy=0;entryPerimeter=0;" parent="WIyWlLk6GJQsqaUBKTNV-1" source="3QOpX5osjgXmDj752tih-38" target="3QOpX5osjgXmDj752tih-40" edge="1">
          <mxGeometry relative="1" as="geometry" />
        </mxCell>
        <mxCell id="3QOpX5osjgXmDj752tih-38" value="Вывод: &quot;Файл был сохранен.&quot;;" style="shape=parallelogram;perimeter=parallelogramPerimeter;whiteSpace=wrap;html=1;fixedSize=1;fontSize=10;" parent="WIyWlLk6GJQsqaUBKTNV-1" vertex="1">
          <mxGeometry x="1938.75" y="530" width="127.5" height="40" as="geometry" />
        </mxCell>
        <mxCell id="3QOpX5osjgXmDj752tih-40" value="конец" style="ellipse;whiteSpace=wrap;html=1;" parent="WIyWlLk6GJQsqaUBKTNV-1" vertex="1">
          <mxGeometry x="1952.5" y="585" width="90" height="40" as="geometry" />
        </mxCell>
        <mxCell id="3QOpX5osjgXmDj752tih-43" value="&lt;font size=&quot;1&quot;&gt;&lt;b&gt;readFile&lt;/b&gt;&lt;/font&gt;" style="text;html=1;strokeColor=none;fillColor=none;align=center;verticalAlign=middle;whiteSpace=wrap;rounded=0;" parent="WIyWlLk6GJQsqaUBKTNV-1" vertex="1">
          <mxGeometry x="2175" y="50" width="60" height="30" as="geometry" />
        </mxCell>
        <mxCell id="3QOpX5osjgXmDj752tih-44" style="edgeStyle=orthogonalEdgeStyle;rounded=0;orthogonalLoop=1;jettySize=auto;html=1;exitX=0.5;exitY=1;exitDx=0;exitDy=0;" parent="WIyWlLk6GJQsqaUBKTNV-1" source="3QOpX5osjgXmDj752tih-45" target="3QOpX5osjgXmDj752tih-47" edge="1">
          <mxGeometry relative="1" as="geometry" />
        </mxCell>
        <mxCell id="3QOpX5osjgXmDj752tih-45" value="начало" style="ellipse;whiteSpace=wrap;html=1;" parent="WIyWlLk6GJQsqaUBKTNV-1" vertex="1">
          <mxGeometry x="2160" y="80" width="90" height="40" as="geometry" />
        </mxCell>
        <mxCell id="3QOpX5osjgXmDj752tih-46" style="edgeStyle=orthogonalEdgeStyle;rounded=0;orthogonalLoop=1;jettySize=auto;html=1;exitX=0.5;exitY=1;exitDx=0;exitDy=0;" parent="WIyWlLk6GJQsqaUBKTNV-1" source="3QOpX5osjgXmDj752tih-47" target="3QOpX5osjgXmDj752tih-49" edge="1">
          <mxGeometry relative="1" as="geometry" />
        </mxCell>
        <mxCell id="3QOpX5osjgXmDj752tih-47" value="&lt;div style=&quot;&quot;&gt;string file, string** mass, int&amp;amp; mass_length, int i;&lt;br&gt;&lt;/div&gt;" style="rounded=0;whiteSpace=wrap;html=1;fontSize=10;" parent="WIyWlLk6GJQsqaUBKTNV-1" vertex="1">
          <mxGeometry x="2160" y="140" width="90" height="50" as="geometry" />
        </mxCell>
        <mxCell id="3QOpX5osjgXmDj752tih-48" style="edgeStyle=orthogonalEdgeStyle;rounded=0;orthogonalLoop=1;jettySize=auto;html=1;exitX=0.5;exitY=1;exitDx=0;exitDy=0;" parent="WIyWlLk6GJQsqaUBKTNV-1" source="3QOpX5osjgXmDj752tih-49" target="3QOpX5osjgXmDj752tih-51" edge="1">
          <mxGeometry relative="1" as="geometry" />
        </mxCell>
        <mxCell id="3QOpX5osjgXmDj752tih-49" value="&lt;div&gt;&lt;span style=&quot;font-size: 8px;&quot;&gt;i=0;&lt;/span&gt;&lt;/div&gt;" style="shape=process;whiteSpace=wrap;html=1;backgroundOutline=1;fontSize=10;" parent="WIyWlLk6GJQsqaUBKTNV-1" vertex="1">
          <mxGeometry x="2155" y="215" width="100" height="45" as="geometry" />
        </mxCell>
        <mxCell id="3QOpX5osjgXmDj752tih-63" style="edgeStyle=orthogonalEdgeStyle;rounded=0;orthogonalLoop=1;jettySize=auto;html=1;exitX=0.5;exitY=1;exitDx=0;exitDy=0;" parent="WIyWlLk6GJQsqaUBKTNV-1" source="3QOpX5osjgXmDj752tih-51" target="3QOpX5osjgXmDj752tih-62" edge="1">
          <mxGeometry relative="1" as="geometry" />
        </mxCell>
        <mxCell id="3QOpX5osjgXmDj752tih-51" value="ifstream fin(filename, ios::in);" style="rounded=0;whiteSpace=wrap;html=1;fontSize=10;" parent="WIyWlLk6GJQsqaUBKTNV-1" vertex="1">
          <mxGeometry x="2160" y="275" width="90" height="40" as="geometry" />
        </mxCell>
        <mxCell id="3QOpX5osjgXmDj752tih-54" style="edgeStyle=orthogonalEdgeStyle;rounded=0;orthogonalLoop=1;jettySize=auto;html=1;exitX=0.5;exitY=1;exitDx=0;exitDy=0;entryX=0;entryY=0.5;entryDx=0;entryDy=0;" parent="WIyWlLk6GJQsqaUBKTNV-1" edge="1">
          <mxGeometry relative="1" as="geometry">
            <Array as="points">
              <mxPoint x="2412" y="450" />
              <mxPoint x="2340" y="450" />
              <mxPoint x="2340" y="360" />
              <mxPoint x="2350" y="360" />
              <mxPoint x="2350" y="353" />
            </Array>
            <mxPoint x="2370" y="352.5" as="targetPoint" />
          </mxGeometry>
        </mxCell>
        <mxCell id="3QOpX5osjgXmDj752tih-57" style="edgeStyle=orthogonalEdgeStyle;rounded=0;orthogonalLoop=1;jettySize=auto;html=1;exitX=0.5;exitY=1;exitDx=0;exitDy=0;entryX=0.5;entryY=0;entryDx=0;entryDy=0;" parent="WIyWlLk6GJQsqaUBKTNV-1" source="3QOpX5osjgXmDj752tih-58" target="3QOpX5osjgXmDj752tih-60" edge="1">
          <mxGeometry relative="1" as="geometry" />
        </mxCell>
        <mxCell id="3QOpX5osjgXmDj752tih-58" value="fin.close();" style="rounded=0;whiteSpace=wrap;html=1;fontSize=10;" parent="WIyWlLk6GJQsqaUBKTNV-1" vertex="1">
          <mxGeometry x="2172.5" y="645" width="90" height="40" as="geometry" />
        </mxCell>
        <mxCell id="3QOpX5osjgXmDj752tih-59" style="edgeStyle=orthogonalEdgeStyle;rounded=0;orthogonalLoop=1;jettySize=auto;html=1;exitX=0.5;exitY=1;exitDx=0;exitDy=0;entryX=0.555;entryY=0.025;entryDx=0;entryDy=0;entryPerimeter=0;" parent="WIyWlLk6GJQsqaUBKTNV-1" source="3QOpX5osjgXmDj752tih-60" target="3QOpX5osjgXmDj752tih-61" edge="1">
          <mxGeometry relative="1" as="geometry" />
        </mxCell>
        <mxCell id="3QOpX5osjgXmDj752tih-60" value="Вывод &quot;Количество строк: &quot; + mass_length;" style="shape=parallelogram;perimeter=parallelogramPerimeter;whiteSpace=wrap;html=1;fixedSize=1;fontSize=10;" parent="WIyWlLk6GJQsqaUBKTNV-1" vertex="1">
          <mxGeometry x="2160" y="700" width="112.5" height="40" as="geometry" />
        </mxCell>
        <mxCell id="3QOpX5osjgXmDj752tih-61" value="конец" style="ellipse;whiteSpace=wrap;html=1;" parent="WIyWlLk6GJQsqaUBKTNV-1" vertex="1">
          <mxGeometry x="2167.5" y="760" width="90" height="40" as="geometry" />
        </mxCell>
        <mxCell id="3QOpX5osjgXmDj752tih-65" style="edgeStyle=orthogonalEdgeStyle;rounded=0;orthogonalLoop=1;jettySize=auto;html=1;exitX=0.5;exitY=1;exitDx=0;exitDy=0;" parent="WIyWlLk6GJQsqaUBKTNV-1" source="3QOpX5osjgXmDj752tih-62" edge="1">
          <mxGeometry relative="1" as="geometry">
            <mxPoint x="2205" y="390" as="targetPoint" />
          </mxGeometry>
        </mxCell>
        <mxCell id="3QOpX5osjgXmDj752tih-62" value="mass_length = 0;" style="rounded=0;whiteSpace=wrap;html=1;fontSize=10;" parent="WIyWlLk6GJQsqaUBKTNV-1" vertex="1">
          <mxGeometry x="2160" y="332.5" width="90" height="40" as="geometry" />
        </mxCell>
        <mxCell id="3QOpX5osjgXmDj752tih-68" style="edgeStyle=orthogonalEdgeStyle;rounded=0;orthogonalLoop=1;jettySize=auto;html=1;exitX=0.5;exitY=1;exitDx=0;exitDy=0;entryX=0.493;entryY=-0.04;entryDx=0;entryDy=0;entryPerimeter=0;" parent="WIyWlLk6GJQsqaUBKTNV-1" source="5KKWMiM6WOco4ZBjqF7u-5" target="3QOpX5osjgXmDj752tih-66" edge="1">
          <mxGeometry relative="1" as="geometry">
            <mxPoint x="2204.8333333333335" y="470" as="targetPoint" />
            <mxPoint x="2205" y="460" as="sourcePoint" />
          </mxGeometry>
        </mxCell>
        <mxCell id="3QOpX5osjgXmDj752tih-76" style="edgeStyle=orthogonalEdgeStyle;rounded=0;orthogonalLoop=1;jettySize=auto;html=1;exitX=1;exitY=0.5;exitDx=0;exitDy=0;entryX=0.5;entryY=0;entryDx=0;entryDy=0;" parent="WIyWlLk6GJQsqaUBKTNV-1" source="5KKWMiM6WOco4ZBjqF7u-5" target="3QOpX5osjgXmDj752tih-58" edge="1">
          <mxGeometry relative="1" as="geometry">
            <Array as="points">
              <mxPoint x="2250" y="410" />
              <mxPoint x="2282" y="410" />
              <mxPoint x="2282" y="620" />
              <mxPoint x="2218" y="620" />
            </Array>
            <mxPoint x="2262.5" y="425" as="sourcePoint" />
          </mxGeometry>
        </mxCell>
        <mxCell id="3QOpX5osjgXmDj752tih-69" style="edgeStyle=orthogonalEdgeStyle;rounded=0;orthogonalLoop=1;jettySize=auto;html=1;exitX=0.5;exitY=1;exitDx=0;exitDy=0;" parent="WIyWlLk6GJQsqaUBKTNV-1" source="3QOpX5osjgXmDj752tih-66" target="3QOpX5osjgXmDj752tih-67" edge="1">
          <mxGeometry relative="1" as="geometry" />
        </mxCell>
        <mxCell id="3QOpX5osjgXmDj752tih-66" value="getline(fin, mass[i][0]);&amp;nbsp;" style="shape=parallelogram;perimeter=parallelogramPerimeter;whiteSpace=wrap;html=1;fixedSize=1;fontSize=10;" parent="WIyWlLk6GJQsqaUBKTNV-1" vertex="1">
          <mxGeometry x="2160" y="462.5" width="90" height="40" as="geometry" />
        </mxCell>
        <mxCell id="3QOpX5osjgXmDj752tih-72" style="edgeStyle=orthogonalEdgeStyle;rounded=0;orthogonalLoop=1;jettySize=auto;html=1;exitX=0.5;exitY=1;exitDx=0;exitDy=0;entryX=0.5;entryY=0;entryDx=0;entryDy=0;" parent="WIyWlLk6GJQsqaUBKTNV-1" source="3QOpX5osjgXmDj752tih-67" edge="1">
          <mxGeometry relative="1" as="geometry">
            <mxPoint x="2205" y="390" as="targetPoint" />
            <Array as="points">
              <mxPoint x="2205" y="620" />
              <mxPoint x="2140" y="620" />
              <mxPoint x="2140" y="380" />
              <mxPoint x="2205" y="380" />
            </Array>
          </mxGeometry>
        </mxCell>
        <mxCell id="3QOpX5osjgXmDj752tih-67" value="mass_length++;" style="rounded=0;whiteSpace=wrap;html=1;fontSize=10;" parent="WIyWlLk6GJQsqaUBKTNV-1" vertex="1">
          <mxGeometry x="2160" y="525" width="90" height="40" as="geometry" />
        </mxCell>
        <mxCell id="3QOpX5osjgXmDj752tih-70" value="да" style="text;html=1;strokeColor=none;fillColor=none;align=center;verticalAlign=middle;whiteSpace=wrap;rounded=0;" parent="WIyWlLk6GJQsqaUBKTNV-1" vertex="1">
          <mxGeometry x="2202.5" y="435" width="60" height="30" as="geometry" />
        </mxCell>
        <mxCell id="3QOpX5osjgXmDj752tih-78" value="нет" style="text;html=1;strokeColor=none;fillColor=none;align=center;verticalAlign=middle;whiteSpace=wrap;rounded=0;" parent="WIyWlLk6GJQsqaUBKTNV-1" vertex="1">
          <mxGeometry x="2247.5" y="400" width="60" height="30" as="geometry" />
        </mxCell>
        <mxCell id="3QOpX5osjgXmDj752tih-81" style="edgeStyle=orthogonalEdgeStyle;rounded=0;orthogonalLoop=1;jettySize=auto;html=1;exitX=0.5;exitY=1;exitDx=0;exitDy=0;" parent="WIyWlLk6GJQsqaUBKTNV-1" source="3QOpX5osjgXmDj752tih-79" target="Kou-GCSw7aOlVnfjeSuj-59" edge="1">
          <mxGeometry relative="1" as="geometry">
            <Array as="points">
              <mxPoint x="710" y="460" />
            </Array>
          </mxGeometry>
        </mxCell>
        <mxCell id="3QOpX5osjgXmDj752tih-79" value="is_open = true;" style="rounded=0;whiteSpace=wrap;html=1;fontSize=10;" parent="WIyWlLk6GJQsqaUBKTNV-1" vertex="1">
          <mxGeometry x="662.5" y="420" width="90" height="40" as="geometry" />
        </mxCell>
        <mxCell id="3QOpX5osjgXmDj752tih-82" style="edgeStyle=orthogonalEdgeStyle;rounded=0;orthogonalLoop=1;jettySize=auto;html=1;exitX=0.5;exitY=1;exitDx=0;exitDy=0;entryX=0.5;entryY=0;entryDx=0;entryDy=0;" parent="WIyWlLk6GJQsqaUBKTNV-1" source="3QOpX5osjgXmDj752tih-83" target="3QOpX5osjgXmDj752tih-84" edge="1">
          <mxGeometry relative="1" as="geometry" />
        </mxCell>
        <mxCell id="3QOpX5osjgXmDj752tih-83" value="fs.close();" style="rounded=0;whiteSpace=wrap;html=1;fontSize=10;" parent="WIyWlLk6GJQsqaUBKTNV-1" vertex="1">
          <mxGeometry x="972.5" y="370" width="90" height="40" as="geometry" />
        </mxCell>
        <mxCell id="3QOpX5osjgXmDj752tih-85" style="edgeStyle=orthogonalEdgeStyle;rounded=0;orthogonalLoop=1;jettySize=auto;html=1;exitX=0.5;exitY=1;exitDx=0;exitDy=0;" parent="WIyWlLk6GJQsqaUBKTNV-1" source="3QOpX5osjgXmDj752tih-84" target="Kou-GCSw7aOlVnfjeSuj-122" edge="1">
          <mxGeometry relative="1" as="geometry" />
        </mxCell>
        <mxCell id="3QOpX5osjgXmDj752tih-84" value="is_open = true;" style="rounded=0;whiteSpace=wrap;html=1;fontSize=10;" parent="WIyWlLk6GJQsqaUBKTNV-1" vertex="1">
          <mxGeometry x="972.5" y="440" width="90" height="40" as="geometry" />
        </mxCell>
        <mxCell id="qyex0iI_ZcIU3OyCrz51-0" value="&lt;font size=&quot;1&quot;&gt;&lt;b&gt;main&lt;/b&gt;&lt;/font&gt;" style="text;html=1;strokeColor=none;fillColor=none;align=center;verticalAlign=middle;whiteSpace=wrap;rounded=0;" parent="WIyWlLk6GJQsqaUBKTNV-1" vertex="1">
          <mxGeometry x="2665" y="52.5" width="60" height="30" as="geometry" />
        </mxCell>
        <mxCell id="qyex0iI_ZcIU3OyCrz51-1" style="edgeStyle=orthogonalEdgeStyle;rounded=0;orthogonalLoop=1;jettySize=auto;html=1;exitX=0.5;exitY=1;exitDx=0;exitDy=0;" parent="WIyWlLk6GJQsqaUBKTNV-1" source="qyex0iI_ZcIU3OyCrz51-2" target="qyex0iI_ZcIU3OyCrz51-3" edge="1">
          <mxGeometry relative="1" as="geometry" />
        </mxCell>
        <mxCell id="qyex0iI_ZcIU3OyCrz51-2" value="начало" style="ellipse;whiteSpace=wrap;html=1;" parent="WIyWlLk6GJQsqaUBKTNV-1" vertex="1">
          <mxGeometry x="2650" y="82.5" width="90" height="40" as="geometry" />
        </mxCell>
        <mxCell id="qyex0iI_ZcIU3OyCrz51-5" style="edgeStyle=orthogonalEdgeStyle;rounded=0;orthogonalLoop=1;jettySize=auto;html=1;exitX=0.5;exitY=1;exitDx=0;exitDy=0;entryX=0.5;entryY=0;entryDx=0;entryDy=0;" parent="WIyWlLk6GJQsqaUBKTNV-1" source="qyex0iI_ZcIU3OyCrz51-3" target="qyex0iI_ZcIU3OyCrz51-4" edge="1">
          <mxGeometry relative="1" as="geometry" />
        </mxCell>
        <mxCell id="qyex0iI_ZcIU3OyCrz51-3" value="string text_mass[N];&lt;br&gt;&lt;div&gt;&amp;nbsp;&amp;nbsp;&amp;nbsp; int mass_length=0, count=0;&lt;/div&gt;&lt;div&gt;const int N = 100;&lt;br&gt;&lt;/div&gt;" style="rounded=0;whiteSpace=wrap;html=1;fontSize=10;" parent="WIyWlLk6GJQsqaUBKTNV-1" vertex="1">
          <mxGeometry x="2640" y="142.5" width="110" height="50" as="geometry" />
        </mxCell>
        <mxCell id="qyex0iI_ZcIU3OyCrz51-7" style="edgeStyle=orthogonalEdgeStyle;rounded=0;orthogonalLoop=1;jettySize=auto;html=1;exitX=0.5;exitY=1;exitDx=0;exitDy=0;entryX=0.5;entryY=0;entryDx=0;entryDy=0;" parent="WIyWlLk6GJQsqaUBKTNV-1" source="qyex0iI_ZcIU3OyCrz51-4" target="qyex0iI_ZcIU3OyCrz51-6" edge="1">
          <mxGeometry relative="1" as="geometry" />
        </mxCell>
        <mxCell id="qyex0iI_ZcIU3OyCrz51-4" value="setlocale(LC_ALL, &quot;Russian&quot;);" style="rounded=0;whiteSpace=wrap;html=1;fontSize=10;" parent="WIyWlLk6GJQsqaUBKTNV-1" vertex="1">
          <mxGeometry x="2650" y="212.5" width="90" height="40" as="geometry" />
        </mxCell>
        <mxCell id="qyex0iI_ZcIU3OyCrz51-9" style="edgeStyle=orthogonalEdgeStyle;rounded=0;orthogonalLoop=1;jettySize=auto;html=1;exitX=0.5;exitY=1;exitDx=0;exitDy=0;entryX=0.5;entryY=0;entryDx=0;entryDy=0;" parent="WIyWlLk6GJQsqaUBKTNV-1" source="qyex0iI_ZcIU3OyCrz51-6" edge="1">
          <mxGeometry relative="1" as="geometry">
            <mxPoint x="2700" y="337.5" as="targetPoint" />
          </mxGeometry>
        </mxCell>
        <mxCell id="qyex0iI_ZcIU3OyCrz51-6" value="&amp;nbsp;filename = checkOpenInputFile&lt;br&gt;(&quot;Введите название файла для чтения:&quot;);" style="shape=process;whiteSpace=wrap;html=1;backgroundOutline=1;fontSize=10;" parent="WIyWlLk6GJQsqaUBKTNV-1" vertex="1">
          <mxGeometry x="2645" y="262.5" width="115" height="60" as="geometry" />
        </mxCell>
        <mxCell id="qyex0iI_ZcIU3OyCrz51-22" value="нет" style="text;html=1;strokeColor=none;fillColor=none;align=center;verticalAlign=middle;whiteSpace=wrap;rounded=0;" parent="WIyWlLk6GJQsqaUBKTNV-1" vertex="1">
          <mxGeometry x="697.5" y="585" width="60" height="30" as="geometry" />
        </mxCell>
        <mxCell id="qyex0iI_ZcIU3OyCrz51-23" value="нет" style="text;html=1;strokeColor=none;fillColor=none;align=center;verticalAlign=middle;whiteSpace=wrap;rounded=0;" parent="WIyWlLk6GJQsqaUBKTNV-1" vertex="1">
          <mxGeometry x="1020" y="600" width="60" height="30" as="geometry" />
        </mxCell>
        <mxCell id="AVf6iye5ho6WVIr8OHe0-1" value="да" style="text;html=1;strokeColor=none;fillColor=none;align=center;verticalAlign=middle;whiteSpace=wrap;rounded=0;" parent="WIyWlLk6GJQsqaUBKTNV-1" vertex="1">
          <mxGeometry x="1260" y="215" width="60" height="30" as="geometry" />
        </mxCell>
        <mxCell id="AVf6iye5ho6WVIr8OHe0-2" value="нет" style="text;html=1;strokeColor=none;fillColor=none;align=center;verticalAlign=middle;whiteSpace=wrap;rounded=0;" parent="WIyWlLk6GJQsqaUBKTNV-1" vertex="1">
          <mxGeometry x="1215" y="170" width="60" height="30" as="geometry" />
        </mxCell>
        <mxCell id="AVf6iye5ho6WVIr8OHe0-4" value="Вывод: &quot;&lt;font style=&quot;font-size: 10px;&quot;&gt;Путь к файлу неправильный&quot;&lt;br style=&quot;font-size: 10px;&quot;&gt;&lt;/font&gt;" style="shape=parallelogram;perimeter=parallelogramPerimeter;whiteSpace=wrap;html=1;fixedSize=1;fontSize=10;" parent="WIyWlLk6GJQsqaUBKTNV-1" vertex="1">
          <mxGeometry x="1075" y="350" width="100" height="50" as="geometry" />
        </mxCell>
        <mxCell id="AVf6iye5ho6WVIr8OHe0-7" value="да" style="text;html=1;strokeColor=none;fillColor=none;align=center;verticalAlign=middle;whiteSpace=wrap;rounded=0;" parent="WIyWlLk6GJQsqaUBKTNV-1" vertex="1">
          <mxGeometry x="1960" y="365" width="60" height="30" as="geometry" />
        </mxCell>
        <mxCell id="AVf6iye5ho6WVIr8OHe0-8" value="нет" style="text;html=1;strokeColor=none;fillColor=none;align=center;verticalAlign=middle;whiteSpace=wrap;rounded=0;" parent="WIyWlLk6GJQsqaUBKTNV-1" vertex="1">
          <mxGeometry x="1920" y="325" width="60" height="30" as="geometry" />
        </mxCell>
        <mxCell id="AVf6iye5ho6WVIr8OHe0-11" value="нет" style="text;html=1;strokeColor=none;fillColor=none;align=center;verticalAlign=middle;whiteSpace=wrap;rounded=0;" parent="WIyWlLk6GJQsqaUBKTNV-1" vertex="1">
          <mxGeometry x="1710" y="505" width="60" height="30" as="geometry" />
        </mxCell>
        <mxCell id="onm2Zg-b9KOXSEAZjMHa-0" value="&lt;b&gt;CheckStr&lt;/b&gt;" style="text;html=1;strokeColor=none;fillColor=none;align=center;verticalAlign=middle;whiteSpace=wrap;rounded=0;" parent="WIyWlLk6GJQsqaUBKTNV-1" vertex="1">
          <mxGeometry x="2375" y="60" width="60" height="30" as="geometry" />
        </mxCell>
        <mxCell id="onm2Zg-b9KOXSEAZjMHa-1" value="начало" style="ellipse;whiteSpace=wrap;html=1;" parent="WIyWlLk6GJQsqaUBKTNV-1" vertex="1">
          <mxGeometry x="2360" y="90" width="90" height="40" as="geometry" />
        </mxCell>
        <mxCell id="onm2Zg-b9KOXSEAZjMHa-2" style="edgeStyle=orthogonalEdgeStyle;rounded=0;orthogonalLoop=1;jettySize=auto;html=1;exitX=0.5;exitY=1;exitDx=0;exitDy=0;" parent="WIyWlLk6GJQsqaUBKTNV-1" target="onm2Zg-b9KOXSEAZjMHa-4" edge="1">
          <mxGeometry relative="1" as="geometry">
            <mxPoint x="2405" y="130" as="sourcePoint" />
          </mxGeometry>
        </mxCell>
        <mxCell id="onm2Zg-b9KOXSEAZjMHa-3" style="edgeStyle=orthogonalEdgeStyle;rounded=0;orthogonalLoop=1;jettySize=auto;html=1;exitX=0.5;exitY=1;exitDx=0;exitDy=0;entryX=0.5;entryY=0;entryDx=0;entryDy=0;" parent="WIyWlLk6GJQsqaUBKTNV-1" source="onm2Zg-b9KOXSEAZjMHa-4" target="onm2Zg-b9KOXSEAZjMHa-6" edge="1">
          <mxGeometry relative="1" as="geometry" />
        </mxCell>
        <mxCell id="onm2Zg-b9KOXSEAZjMHa-4" value="string file, int&amp;amp; mass_length,&amp;nbsp;string str;" style="rounded=0;whiteSpace=wrap;html=1;fontSize=10;" parent="WIyWlLk6GJQsqaUBKTNV-1" vertex="1">
          <mxGeometry x="2350" y="150" width="110" height="50" as="geometry" />
        </mxCell>
        <mxCell id="onm2Zg-b9KOXSEAZjMHa-5" style="edgeStyle=orthogonalEdgeStyle;rounded=0;orthogonalLoop=1;jettySize=auto;html=1;exitX=0.5;exitY=1;exitDx=0;exitDy=0;entryX=0.5;entryY=0;entryDx=0;entryDy=0;" parent="WIyWlLk6GJQsqaUBKTNV-1" source="onm2Zg-b9KOXSEAZjMHa-6" target="onm2Zg-b9KOXSEAZjMHa-8" edge="1">
          <mxGeometry relative="1" as="geometry" />
        </mxCell>
        <mxCell id="onm2Zg-b9KOXSEAZjMHa-6" value="ifstream fin(file, ios::in);" style="rounded=0;whiteSpace=wrap;html=1;fontSize=10;" parent="WIyWlLk6GJQsqaUBKTNV-1" vertex="1">
          <mxGeometry x="2350" y="212.5" width="110" height="47.5" as="geometry" />
        </mxCell>
        <mxCell id="5KKWMiM6WOco4ZBjqF7u-8" style="edgeStyle=orthogonalEdgeStyle;rounded=0;orthogonalLoop=1;jettySize=auto;html=1;exitX=0.5;exitY=1;exitDx=0;exitDy=0;entryX=0.5;entryY=0;entryDx=0;entryDy=0;" parent="WIyWlLk6GJQsqaUBKTNV-1" source="onm2Zg-b9KOXSEAZjMHa-8" target="onm2Zg-b9KOXSEAZjMHa-20" edge="1">
          <mxGeometry relative="1" as="geometry" />
        </mxCell>
        <mxCell id="onm2Zg-b9KOXSEAZjMHa-8" value="mass_length = 0;" style="rounded=0;whiteSpace=wrap;html=1;fontSize=10;" parent="WIyWlLk6GJQsqaUBKTNV-1" vertex="1">
          <mxGeometry x="2347.5" y="275" width="110" height="35" as="geometry" />
        </mxCell>
        <mxCell id="5KKWMiM6WOco4ZBjqF7u-11" style="edgeStyle=orthogonalEdgeStyle;rounded=0;orthogonalLoop=1;jettySize=auto;html=1;exitX=0.5;exitY=1;exitDx=0;exitDy=0;entryX=0;entryY=0.5;entryDx=0;entryDy=0;" parent="WIyWlLk6GJQsqaUBKTNV-1" source="onm2Zg-b9KOXSEAZjMHa-17" target="onm2Zg-b9KOXSEAZjMHa-20" edge="1">
          <mxGeometry relative="1" as="geometry">
            <Array as="points">
              <mxPoint x="2408" y="510" />
              <mxPoint x="2328" y="510" />
              <mxPoint x="2328" y="360" />
            </Array>
          </mxGeometry>
        </mxCell>
        <mxCell id="onm2Zg-b9KOXSEAZjMHa-17" value="mass_length++;" style="rounded=0;whiteSpace=wrap;html=1;fontSize=10;" parent="WIyWlLk6GJQsqaUBKTNV-1" vertex="1">
          <mxGeometry x="2352.5" y="467.5" width="110" height="35" as="geometry" />
        </mxCell>
        <mxCell id="onm2Zg-b9KOXSEAZjMHa-18" value="&amp;nbsp;getline(fin, str);;" style="shape=parallelogram;perimeter=parallelogramPerimeter;whiteSpace=wrap;html=1;fixedSize=1;fontSize=10;" parent="WIyWlLk6GJQsqaUBKTNV-1" vertex="1">
          <mxGeometry x="2352.5" y="412.5" width="110" height="35" as="geometry" />
        </mxCell>
        <mxCell id="onm2Zg-b9KOXSEAZjMHa-19" style="edgeStyle=orthogonalEdgeStyle;rounded=0;orthogonalLoop=1;jettySize=auto;html=1;exitX=0.5;exitY=1;exitDx=0;exitDy=0;entryX=0.5;entryY=-0.143;entryDx=0;entryDy=0;entryPerimeter=0;" parent="WIyWlLk6GJQsqaUBKTNV-1" source="onm2Zg-b9KOXSEAZjMHa-18" target="onm2Zg-b9KOXSEAZjMHa-17" edge="1">
          <mxGeometry relative="1" as="geometry" />
        </mxCell>
        <mxCell id="5KKWMiM6WOco4ZBjqF7u-9" style="edgeStyle=orthogonalEdgeStyle;rounded=0;orthogonalLoop=1;jettySize=auto;html=1;exitX=0.5;exitY=1;exitDx=0;exitDy=0;entryX=0.5;entryY=0;entryDx=0;entryDy=0;" parent="WIyWlLk6GJQsqaUBKTNV-1" source="onm2Zg-b9KOXSEAZjMHa-20" target="onm2Zg-b9KOXSEAZjMHa-18" edge="1">
          <mxGeometry relative="1" as="geometry" />
        </mxCell>
        <mxCell id="5KKWMiM6WOco4ZBjqF7u-10" style="edgeStyle=orthogonalEdgeStyle;rounded=0;orthogonalLoop=1;jettySize=auto;html=1;exitX=1;exitY=0.5;exitDx=0;exitDy=0;entryX=0.5;entryY=0;entryDx=0;entryDy=0;" parent="WIyWlLk6GJQsqaUBKTNV-1" source="onm2Zg-b9KOXSEAZjMHa-20" target="onm2Zg-b9KOXSEAZjMHa-25" edge="1">
          <mxGeometry relative="1" as="geometry">
            <Array as="points">
              <mxPoint x="2483" y="360" />
              <mxPoint x="2483" y="520" />
              <mxPoint x="2403" y="520" />
            </Array>
          </mxGeometry>
        </mxCell>
        <mxCell id="onm2Zg-b9KOXSEAZjMHa-20" value="!fin.eof()) &amp;amp;&amp;amp; (mass_length &amp;lt; N" style="rhombus;whiteSpace=wrap;html=1;fontSize=10;" parent="WIyWlLk6GJQsqaUBKTNV-1" vertex="1">
          <mxGeometry x="2347.5" y="325" width="115" height="70" as="geometry" />
        </mxCell>
        <mxCell id="onm2Zg-b9KOXSEAZjMHa-23" value="да" style="text;html=1;strokeColor=none;fillColor=none;align=center;verticalAlign=middle;whiteSpace=wrap;rounded=0;" parent="WIyWlLk6GJQsqaUBKTNV-1" vertex="1">
          <mxGeometry x="2387.5" y="385" width="60" height="30" as="geometry" />
        </mxCell>
        <mxCell id="onm2Zg-b9KOXSEAZjMHa-24" value="нет" style="text;html=1;strokeColor=none;fillColor=none;align=center;verticalAlign=middle;whiteSpace=wrap;rounded=0;" parent="WIyWlLk6GJQsqaUBKTNV-1" vertex="1">
          <mxGeometry x="2450" y="330" width="60" height="30" as="geometry" />
        </mxCell>
        <mxCell id="onm2Zg-b9KOXSEAZjMHa-28" style="edgeStyle=orthogonalEdgeStyle;rounded=0;orthogonalLoop=1;jettySize=auto;html=1;exitX=0.5;exitY=1;exitDx=0;exitDy=0;entryX=0.5;entryY=0;entryDx=0;entryDy=0;" parent="WIyWlLk6GJQsqaUBKTNV-1" source="onm2Zg-b9KOXSEAZjMHa-25" target="onm2Zg-b9KOXSEAZjMHa-27" edge="1">
          <mxGeometry relative="1" as="geometry" />
        </mxCell>
        <mxCell id="onm2Zg-b9KOXSEAZjMHa-25" value="fin.close();&amp;nbsp;" style="rounded=0;whiteSpace=wrap;html=1;fontSize=10;" parent="WIyWlLk6GJQsqaUBKTNV-1" vertex="1">
          <mxGeometry x="2357.5" y="540" width="90" height="40" as="geometry" />
        </mxCell>
        <mxCell id="onm2Zg-b9KOXSEAZjMHa-27" value="Вывод &quot;Количество&lt;br&gt;&amp;nbsp;строк: &quot;&amp;nbsp; +&lt;br&gt;&amp;nbsp;mass_length" style="shape=parallelogram;perimeter=parallelogramPerimeter;whiteSpace=wrap;html=1;fixedSize=1;fontSize=10;" parent="WIyWlLk6GJQsqaUBKTNV-1" vertex="1">
          <mxGeometry x="2340" y="600" width="125" height="50" as="geometry" />
        </mxCell>
        <mxCell id="onm2Zg-b9KOXSEAZjMHa-29" value="return&amp;nbsp;mass_length&lt;span style=&quot;background-color: initial;&quot;&gt;;&lt;/span&gt;" style="shape=rectangle;perimeter=rectanglePerimeter;&#xa;whiteSpace=wrap;html=1;fixedSize=1;fontSize=10;" parent="WIyWlLk6GJQsqaUBKTNV-1" vertex="1">
          <mxGeometry x="2350" y="670" width="95" height="40" as="geometry" />
        </mxCell>
        <mxCell id="onm2Zg-b9KOXSEAZjMHa-30" style="edgeStyle=orthogonalEdgeStyle;rounded=0;orthogonalLoop=1;jettySize=auto;html=1;exitX=0.5;exitY=1;exitDx=0;exitDy=0;entryX=0.527;entryY=-0.065;entryDx=0;entryDy=0;entryPerimeter=0;" parent="WIyWlLk6GJQsqaUBKTNV-1" source="onm2Zg-b9KOXSEAZjMHa-27" target="onm2Zg-b9KOXSEAZjMHa-29" edge="1">
          <mxGeometry relative="1" as="geometry" />
        </mxCell>
        <mxCell id="onm2Zg-b9KOXSEAZjMHa-31" value="конец" style="ellipse;whiteSpace=wrap;html=1;" parent="WIyWlLk6GJQsqaUBKTNV-1" vertex="1">
          <mxGeometry x="2352.5" y="730" width="90" height="40" as="geometry" />
        </mxCell>
        <mxCell id="onm2Zg-b9KOXSEAZjMHa-32" style="edgeStyle=orthogonalEdgeStyle;rounded=0;orthogonalLoop=1;jettySize=auto;html=1;exitX=0.5;exitY=1;exitDx=0;exitDy=0;entryX=0.46;entryY=0.006;entryDx=0;entryDy=0;entryPerimeter=0;" parent="WIyWlLk6GJQsqaUBKTNV-1" source="onm2Zg-b9KOXSEAZjMHa-29" target="onm2Zg-b9KOXSEAZjMHa-31" edge="1">
          <mxGeometry relative="1" as="geometry" />
        </mxCell>
        <mxCell id="onm2Zg-b9KOXSEAZjMHa-35" style="edgeStyle=orthogonalEdgeStyle;rounded=0;orthogonalLoop=1;jettySize=auto;html=1;exitX=0.5;exitY=1;exitDx=0;exitDy=0;entryX=0.5;entryY=0;entryDx=0;entryDy=0;" parent="WIyWlLk6GJQsqaUBKTNV-1" source="onm2Zg-b9KOXSEAZjMHa-33" target="onm2Zg-b9KOXSEAZjMHa-34" edge="1">
          <mxGeometry relative="1" as="geometry" />
        </mxCell>
        <mxCell id="onm2Zg-b9KOXSEAZjMHa-33" value="count = CheckStr(filename, mass_length);" style="shape=process;whiteSpace=wrap;html=1;backgroundOutline=1;fontSize=10;" parent="WIyWlLk6GJQsqaUBKTNV-1" vertex="1">
          <mxGeometry x="2645" y="337.5" width="115" height="60" as="geometry" />
        </mxCell>
        <mxCell id="onm2Zg-b9KOXSEAZjMHa-44" style="edgeStyle=orthogonalEdgeStyle;rounded=0;orthogonalLoop=1;jettySize=auto;html=1;exitX=0.5;exitY=1;exitDx=0;exitDy=0;entryX=0.5;entryY=0;entryDx=0;entryDy=0;" parent="WIyWlLk6GJQsqaUBKTNV-1" source="onm2Zg-b9KOXSEAZjMHa-34" target="onm2Zg-b9KOXSEAZjMHa-37" edge="1">
          <mxGeometry relative="1" as="geometry" />
        </mxCell>
        <mxCell id="onm2Zg-b9KOXSEAZjMHa-34" value="pt = new string* [count];" style="rounded=0;whiteSpace=wrap;html=1;fontSize=10;" parent="WIyWlLk6GJQsqaUBKTNV-1" vertex="1">
          <mxGeometry x="2647.5" y="422.5" width="110" height="35" as="geometry" />
        </mxCell>
        <mxCell id="onm2Zg-b9KOXSEAZjMHa-36" style="edgeStyle=orthogonalEdgeStyle;rounded=0;orthogonalLoop=1;jettySize=auto;html=1;exitX=0.5;exitY=1;exitDx=0;exitDy=0;entryX=0.5;entryY=0;entryDx=0;entryDy=0;" parent="WIyWlLk6GJQsqaUBKTNV-1" source="onm2Zg-b9KOXSEAZjMHa-37" target="onm2Zg-b9KOXSEAZjMHa-40" edge="1">
          <mxGeometry relative="1" as="geometry" />
        </mxCell>
        <mxCell id="onm2Zg-b9KOXSEAZjMHa-37" value="&lt;font style=&quot;font-size: 10px;&quot;&gt;for i:=0 to count&lt;br&gt;&lt;/font&gt;" style="shape=hexagon;perimeter=hexagonPerimeter2;whiteSpace=wrap;html=1;fixedSize=1;" parent="WIyWlLk6GJQsqaUBKTNV-1" vertex="1">
          <mxGeometry x="2660" y="470" width="90" height="45" as="geometry" />
        </mxCell>
        <mxCell id="onm2Zg-b9KOXSEAZjMHa-38" style="edgeStyle=orthogonalEdgeStyle;rounded=0;orthogonalLoop=1;jettySize=auto;html=1;exitX=0;exitY=0.5;exitDx=0;exitDy=0;entryX=0.5;entryY=0;entryDx=0;entryDy=0;" parent="WIyWlLk6GJQsqaUBKTNV-1" source="onm2Zg-b9KOXSEAZjMHa-37" edge="1">
          <mxGeometry relative="1" as="geometry">
            <Array as="points">
              <mxPoint x="2640" y="493" />
              <mxPoint x="2640" y="600" />
              <mxPoint x="2703" y="600" />
            </Array>
            <mxPoint x="2703" y="625" as="targetPoint" />
          </mxGeometry>
        </mxCell>
        <mxCell id="onm2Zg-b9KOXSEAZjMHa-39" style="edgeStyle=orthogonalEdgeStyle;rounded=0;orthogonalLoop=1;jettySize=auto;html=1;exitX=0.5;exitY=1;exitDx=0;exitDy=0;entryX=1;entryY=0.5;entryDx=0;entryDy=0;" parent="WIyWlLk6GJQsqaUBKTNV-1" source="onm2Zg-b9KOXSEAZjMHa-40" target="onm2Zg-b9KOXSEAZjMHa-37" edge="1">
          <mxGeometry relative="1" as="geometry">
            <Array as="points">
              <mxPoint x="2703" y="590" />
              <mxPoint x="2770" y="590" />
              <mxPoint x="2770" y="493" />
            </Array>
          </mxGeometry>
        </mxCell>
        <mxCell id="onm2Zg-b9KOXSEAZjMHa-40" value="pt[i]=new string;" style="rounded=0;whiteSpace=wrap;html=1;fontSize=10;" parent="WIyWlLk6GJQsqaUBKTNV-1" vertex="1">
          <mxGeometry x="2655" y="540" width="95" height="40" as="geometry" />
        </mxCell>
        <mxCell id="onm2Zg-b9KOXSEAZjMHa-41" value="да" style="text;html=1;strokeColor=none;fillColor=none;align=center;verticalAlign=middle;whiteSpace=wrap;rounded=0;" parent="WIyWlLk6GJQsqaUBKTNV-1" vertex="1">
          <mxGeometry x="2660" y="515" width="60" height="30" as="geometry" />
        </mxCell>
        <mxCell id="onm2Zg-b9KOXSEAZjMHa-42" value="нет" style="text;html=1;strokeColor=none;fillColor=none;align=center;verticalAlign=middle;whiteSpace=wrap;rounded=0;" parent="WIyWlLk6GJQsqaUBKTNV-1" vertex="1">
          <mxGeometry x="2605" y="467.5" width="60" height="30" as="geometry" />
        </mxCell>
        <mxCell id="onm2Zg-b9KOXSEAZjMHa-52" style="edgeStyle=orthogonalEdgeStyle;rounded=0;orthogonalLoop=1;jettySize=auto;html=1;exitX=0.5;exitY=1;exitDx=0;exitDy=0;entryX=0.5;entryY=0;entryDx=0;entryDy=0;" parent="WIyWlLk6GJQsqaUBKTNV-1" source="onm2Zg-b9KOXSEAZjMHa-45" target="onm2Zg-b9KOXSEAZjMHa-46" edge="1">
          <mxGeometry relative="1" as="geometry" />
        </mxCell>
        <mxCell id="onm2Zg-b9KOXSEAZjMHa-45" value="readFile(filename, pt, count);" style="shape=process;whiteSpace=wrap;html=1;backgroundOutline=1;fontSize=10;" parent="WIyWlLk6GJQsqaUBKTNV-1" vertex="1">
          <mxGeometry x="2647.5" y="625" width="115" height="45" as="geometry" />
        </mxCell>
        <mxCell id="onm2Zg-b9KOXSEAZjMHa-53" style="edgeStyle=orthogonalEdgeStyle;rounded=0;orthogonalLoop=1;jettySize=auto;html=1;exitX=0.5;exitY=1;exitDx=0;exitDy=0;entryX=0.5;entryY=0;entryDx=0;entryDy=0;" parent="WIyWlLk6GJQsqaUBKTNV-1" source="onm2Zg-b9KOXSEAZjMHa-46" target="onm2Zg-b9KOXSEAZjMHa-47" edge="1">
          <mxGeometry relative="1" as="geometry" />
        </mxCell>
        <mxCell id="onm2Zg-b9KOXSEAZjMHa-46" value="outContent(pt, count);" style="shape=process;whiteSpace=wrap;html=1;backgroundOutline=1;fontSize=10;" parent="WIyWlLk6GJQsqaUBKTNV-1" vertex="1">
          <mxGeometry x="2645" y="680" width="115" height="40" as="geometry" />
        </mxCell>
        <mxCell id="onm2Zg-b9KOXSEAZjMHa-54" style="edgeStyle=orthogonalEdgeStyle;rounded=0;orthogonalLoop=1;jettySize=auto;html=1;exitX=0.5;exitY=1;exitDx=0;exitDy=0;entryX=0.5;entryY=0;entryDx=0;entryDy=0;" parent="WIyWlLk6GJQsqaUBKTNV-1" source="onm2Zg-b9KOXSEAZjMHa-47" target="onm2Zg-b9KOXSEAZjMHa-48" edge="1">
          <mxGeometry relative="1" as="geometry" />
        </mxCell>
        <mxCell id="onm2Zg-b9KOXSEAZjMHa-47" value="cycleDelete(pt, mass_length);" style="shape=process;whiteSpace=wrap;html=1;backgroundOutline=1;fontSize=10;" parent="WIyWlLk6GJQsqaUBKTNV-1" vertex="1">
          <mxGeometry x="2645" y="725" width="115" height="45" as="geometry" />
        </mxCell>
        <mxCell id="onm2Zg-b9KOXSEAZjMHa-55" style="edgeStyle=orthogonalEdgeStyle;rounded=0;orthogonalLoop=1;jettySize=auto;html=1;exitX=0.5;exitY=1;exitDx=0;exitDy=0;entryX=0.5;entryY=0;entryDx=0;entryDy=0;" parent="WIyWlLk6GJQsqaUBKTNV-1" source="onm2Zg-b9KOXSEAZjMHa-48" target="onm2Zg-b9KOXSEAZjMHa-49" edge="1">
          <mxGeometry relative="1" as="geometry" />
        </mxCell>
        <mxCell id="onm2Zg-b9KOXSEAZjMHa-48" value="&amp;nbsp;outContent(pt, count);" style="shape=process;whiteSpace=wrap;html=1;backgroundOutline=1;fontSize=10;" parent="WIyWlLk6GJQsqaUBKTNV-1" vertex="1">
          <mxGeometry x="2642.5" y="780" width="115" height="40" as="geometry" />
        </mxCell>
        <mxCell id="onm2Zg-b9KOXSEAZjMHa-63" style="edgeStyle=orthogonalEdgeStyle;rounded=0;orthogonalLoop=1;jettySize=auto;html=1;exitX=0.5;exitY=1;exitDx=0;exitDy=0;entryX=0.5;entryY=0;entryDx=0;entryDy=0;" parent="WIyWlLk6GJQsqaUBKTNV-1" source="onm2Zg-b9KOXSEAZjMHa-49" target="onm2Zg-b9KOXSEAZjMHa-57" edge="1">
          <mxGeometry relative="1" as="geometry" />
        </mxCell>
        <mxCell id="onm2Zg-b9KOXSEAZjMHa-49" value="SaveFile(pt, mass_length);" style="shape=process;whiteSpace=wrap;html=1;backgroundOutline=1;fontSize=10;" parent="WIyWlLk6GJQsqaUBKTNV-1" vertex="1">
          <mxGeometry x="2642.5" y="830" width="115" height="30" as="geometry" />
        </mxCell>
        <mxCell id="onm2Zg-b9KOXSEAZjMHa-56" style="edgeStyle=orthogonalEdgeStyle;rounded=0;orthogonalLoop=1;jettySize=auto;html=1;exitX=0.5;exitY=1;exitDx=0;exitDy=0;entryX=0.5;entryY=0;entryDx=0;entryDy=0;" parent="WIyWlLk6GJQsqaUBKTNV-1" source="onm2Zg-b9KOXSEAZjMHa-57" target="onm2Zg-b9KOXSEAZjMHa-60" edge="1">
          <mxGeometry relative="1" as="geometry" />
        </mxCell>
        <mxCell id="onm2Zg-b9KOXSEAZjMHa-57" value="&lt;font style=&quot;font-size: 10px;&quot;&gt;for i:=0 to count&lt;br&gt;&lt;/font&gt;" style="shape=hexagon;perimeter=hexagonPerimeter2;whiteSpace=wrap;html=1;fixedSize=1;" parent="WIyWlLk6GJQsqaUBKTNV-1" vertex="1">
          <mxGeometry x="2652.5" y="872.5" width="90" height="45" as="geometry" />
        </mxCell>
        <mxCell id="onm2Zg-b9KOXSEAZjMHa-58" style="edgeStyle=orthogonalEdgeStyle;rounded=0;orthogonalLoop=1;jettySize=auto;html=1;exitX=0;exitY=0.5;exitDx=0;exitDy=0;entryX=0.5;entryY=0;entryDx=0;entryDy=0;" parent="WIyWlLk6GJQsqaUBKTNV-1" source="onm2Zg-b9KOXSEAZjMHa-57" edge="1">
          <mxGeometry relative="1" as="geometry">
            <Array as="points">
              <mxPoint x="2632.5" y="895.5" />
              <mxPoint x="2632.5" y="1002.5" />
              <mxPoint x="2695.5" y="1002.5" />
            </Array>
            <mxPoint x="2695.5" y="1027.5" as="targetPoint" />
          </mxGeometry>
        </mxCell>
        <mxCell id="onm2Zg-b9KOXSEAZjMHa-59" style="edgeStyle=orthogonalEdgeStyle;rounded=0;orthogonalLoop=1;jettySize=auto;html=1;exitX=0.5;exitY=1;exitDx=0;exitDy=0;entryX=1;entryY=0.5;entryDx=0;entryDy=0;" parent="WIyWlLk6GJQsqaUBKTNV-1" source="onm2Zg-b9KOXSEAZjMHa-60" target="onm2Zg-b9KOXSEAZjMHa-57" edge="1">
          <mxGeometry relative="1" as="geometry">
            <Array as="points">
              <mxPoint x="2695.5" y="992.5" />
              <mxPoint x="2762.5" y="992.5" />
              <mxPoint x="2762.5" y="895.5" />
            </Array>
          </mxGeometry>
        </mxCell>
        <mxCell id="onm2Zg-b9KOXSEAZjMHa-60" value="delete pt[i];" style="rounded=0;whiteSpace=wrap;html=1;fontSize=10;" parent="WIyWlLk6GJQsqaUBKTNV-1" vertex="1">
          <mxGeometry x="2647.5" y="942.5" width="95" height="40" as="geometry" />
        </mxCell>
        <mxCell id="onm2Zg-b9KOXSEAZjMHa-61" value="да" style="text;html=1;strokeColor=none;fillColor=none;align=center;verticalAlign=middle;whiteSpace=wrap;rounded=0;" parent="WIyWlLk6GJQsqaUBKTNV-1" vertex="1">
          <mxGeometry x="2652.5" y="917.5" width="60" height="30" as="geometry" />
        </mxCell>
        <mxCell id="onm2Zg-b9KOXSEAZjMHa-62" value="нет" style="text;html=1;strokeColor=none;fillColor=none;align=center;verticalAlign=middle;whiteSpace=wrap;rounded=0;" parent="WIyWlLk6GJQsqaUBKTNV-1" vertex="1">
          <mxGeometry x="2597.5" y="870" width="60" height="30" as="geometry" />
        </mxCell>
        <mxCell id="onm2Zg-b9KOXSEAZjMHa-66" style="edgeStyle=orthogonalEdgeStyle;rounded=0;orthogonalLoop=1;jettySize=auto;html=1;exitX=0.5;exitY=1;exitDx=0;exitDy=0;entryX=0.5;entryY=0;entryDx=0;entryDy=0;" parent="WIyWlLk6GJQsqaUBKTNV-1" source="onm2Zg-b9KOXSEAZjMHa-64" target="onm2Zg-b9KOXSEAZjMHa-65" edge="1">
          <mxGeometry relative="1" as="geometry" />
        </mxCell>
        <mxCell id="onm2Zg-b9KOXSEAZjMHa-64" value="delete[] pt;" style="rounded=0;whiteSpace=wrap;html=1;fontSize=10;" parent="WIyWlLk6GJQsqaUBKTNV-1" vertex="1">
          <mxGeometry x="2647.5" y="1030" width="95" height="40" as="geometry" />
        </mxCell>
        <mxCell id="onm2Zg-b9KOXSEAZjMHa-65" value="конец" style="ellipse;whiteSpace=wrap;html=1;" parent="WIyWlLk6GJQsqaUBKTNV-1" vertex="1">
          <mxGeometry x="2647.5" y="1080" width="90" height="40" as="geometry" />
        </mxCell>
        <mxCell id="llXuSchYv8ZWDdE_k4hw-7" style="edgeStyle=orthogonalEdgeStyle;rounded=0;orthogonalLoop=1;jettySize=auto;html=1;exitX=1;exitY=0.5;exitDx=0;exitDy=0;entryX=0;entryY=0.5;entryDx=0;entryDy=0;" parent="WIyWlLk6GJQsqaUBKTNV-1" source="llXuSchYv8ZWDdE_k4hw-0" target="llXuSchYv8ZWDdE_k4hw-2" edge="1">
          <mxGeometry relative="1" as="geometry" />
        </mxCell>
        <mxCell id="llXuSchYv8ZWDdE_k4hw-0" value="string**" style="rounded=0;whiteSpace=wrap;html=1;" parent="WIyWlLk6GJQsqaUBKTNV-1" vertex="1">
          <mxGeometry x="2890" y="240" width="120" height="60" as="geometry" />
        </mxCell>
        <mxCell id="llXuSchYv8ZWDdE_k4hw-1" value="&lt;font size=&quot;1&quot;&gt;&lt;b&gt;pt&lt;/b&gt;&lt;/font&gt;" style="text;html=1;strokeColor=none;fillColor=none;align=center;verticalAlign=middle;whiteSpace=wrap;rounded=0;" parent="WIyWlLk6GJQsqaUBKTNV-1" vertex="1">
          <mxGeometry x="2920" y="210" width="60" height="30" as="geometry" />
        </mxCell>
        <mxCell id="llXuSchYv8ZWDdE_k4hw-18" style="edgeStyle=orthogonalEdgeStyle;rounded=0;orthogonalLoop=1;jettySize=auto;html=1;exitX=1;exitY=0.5;exitDx=0;exitDy=0;" parent="WIyWlLk6GJQsqaUBKTNV-1" source="llXuSchYv8ZWDdE_k4hw-2" target="llXuSchYv8ZWDdE_k4hw-14" edge="1">
          <mxGeometry relative="1" as="geometry" />
        </mxCell>
        <mxCell id="llXuSchYv8ZWDdE_k4hw-2" value="string*" style="rounded=0;whiteSpace=wrap;html=1;" parent="WIyWlLk6GJQsqaUBKTNV-1" vertex="1">
          <mxGeometry x="3070" y="240" width="120" height="60" as="geometry" />
        </mxCell>
        <mxCell id="llXuSchYv8ZWDdE_k4hw-19" style="edgeStyle=orthogonalEdgeStyle;rounded=0;orthogonalLoop=1;jettySize=auto;html=1;exitX=1;exitY=0.5;exitDx=0;exitDy=0;" parent="WIyWlLk6GJQsqaUBKTNV-1" source="llXuSchYv8ZWDdE_k4hw-3" target="llXuSchYv8ZWDdE_k4hw-15" edge="1">
          <mxGeometry relative="1" as="geometry" />
        </mxCell>
        <mxCell id="llXuSchYv8ZWDdE_k4hw-3" value="string*" style="rounded=0;whiteSpace=wrap;html=1;" parent="WIyWlLk6GJQsqaUBKTNV-1" vertex="1">
          <mxGeometry x="3070" y="300" width="120" height="60" as="geometry" />
        </mxCell>
        <mxCell id="llXuSchYv8ZWDdE_k4hw-20" style="edgeStyle=orthogonalEdgeStyle;rounded=0;orthogonalLoop=1;jettySize=auto;html=1;exitX=1;exitY=0.5;exitDx=0;exitDy=0;entryX=0;entryY=0.5;entryDx=0;entryDy=0;" parent="WIyWlLk6GJQsqaUBKTNV-1" source="llXuSchYv8ZWDdE_k4hw-4" target="llXuSchYv8ZWDdE_k4hw-16" edge="1">
          <mxGeometry relative="1" as="geometry" />
        </mxCell>
        <mxCell id="llXuSchYv8ZWDdE_k4hw-4" value="string*" style="rounded=0;whiteSpace=wrap;html=1;" parent="WIyWlLk6GJQsqaUBKTNV-1" vertex="1">
          <mxGeometry x="3070" y="360" width="120" height="60" as="geometry" />
        </mxCell>
        <mxCell id="llXuSchYv8ZWDdE_k4hw-5" value="..." style="rounded=0;whiteSpace=wrap;html=1;" parent="WIyWlLk6GJQsqaUBKTNV-1" vertex="1">
          <mxGeometry x="3070" y="420" width="120" height="60" as="geometry" />
        </mxCell>
        <mxCell id="llXuSchYv8ZWDdE_k4hw-21" style="edgeStyle=orthogonalEdgeStyle;rounded=0;orthogonalLoop=1;jettySize=auto;html=1;exitX=1;exitY=0.5;exitDx=0;exitDy=0;entryX=0;entryY=0.5;entryDx=0;entryDy=0;" parent="WIyWlLk6GJQsqaUBKTNV-1" source="llXuSchYv8ZWDdE_k4hw-6" target="llXuSchYv8ZWDdE_k4hw-17" edge="1">
          <mxGeometry relative="1" as="geometry" />
        </mxCell>
        <mxCell id="llXuSchYv8ZWDdE_k4hw-6" value="string*" style="rounded=0;whiteSpace=wrap;html=1;" parent="WIyWlLk6GJQsqaUBKTNV-1" vertex="1">
          <mxGeometry x="3070" y="480" width="120" height="60" as="geometry" />
        </mxCell>
        <mxCell id="llXuSchYv8ZWDdE_k4hw-9" value="0" style="text;html=1;strokeColor=none;fillColor=none;align=center;verticalAlign=middle;whiteSpace=wrap;rounded=0;" parent="WIyWlLk6GJQsqaUBKTNV-1" vertex="1">
          <mxGeometry x="3020" y="245" width="60" height="30" as="geometry" />
        </mxCell>
        <mxCell id="llXuSchYv8ZWDdE_k4hw-10" value="1" style="text;html=1;strokeColor=none;fillColor=none;align=center;verticalAlign=middle;whiteSpace=wrap;rounded=0;" parent="WIyWlLk6GJQsqaUBKTNV-1" vertex="1">
          <mxGeometry x="3020" y="315" width="60" height="30" as="geometry" />
        </mxCell>
        <mxCell id="llXuSchYv8ZWDdE_k4hw-11" value="2" style="text;html=1;strokeColor=none;fillColor=none;align=center;verticalAlign=middle;whiteSpace=wrap;rounded=0;" parent="WIyWlLk6GJQsqaUBKTNV-1" vertex="1">
          <mxGeometry x="3020" y="375" width="60" height="30" as="geometry" />
        </mxCell>
        <mxCell id="llXuSchYv8ZWDdE_k4hw-12" value="...." style="text;html=1;strokeColor=none;fillColor=none;align=center;verticalAlign=middle;whiteSpace=wrap;rounded=0;" parent="WIyWlLk6GJQsqaUBKTNV-1" vertex="1">
          <mxGeometry x="3020" y="437.5" width="60" height="30" as="geometry" />
        </mxCell>
        <mxCell id="llXuSchYv8ZWDdE_k4hw-13" value="mass_length-1" style="text;html=1;strokeColor=none;fillColor=none;align=center;verticalAlign=middle;whiteSpace=wrap;rounded=0;" parent="WIyWlLk6GJQsqaUBKTNV-1" vertex="1">
          <mxGeometry x="2970" y="500" width="100" height="30" as="geometry" />
        </mxCell>
        <mxCell id="llXuSchYv8ZWDdE_k4hw-14" value="string" style="rounded=0;whiteSpace=wrap;html=1;" parent="WIyWlLk6GJQsqaUBKTNV-1" vertex="1">
          <mxGeometry x="3260" y="240" width="120" height="60" as="geometry" />
        </mxCell>
        <mxCell id="llXuSchYv8ZWDdE_k4hw-15" value="string" style="rounded=0;whiteSpace=wrap;html=1;" parent="WIyWlLk6GJQsqaUBKTNV-1" vertex="1">
          <mxGeometry x="3260" y="310" width="120" height="60" as="geometry" />
        </mxCell>
        <mxCell id="llXuSchYv8ZWDdE_k4hw-16" value="string" style="rounded=0;whiteSpace=wrap;html=1;" parent="WIyWlLk6GJQsqaUBKTNV-1" vertex="1">
          <mxGeometry x="3260" y="380" width="120" height="60" as="geometry" />
        </mxCell>
        <mxCell id="llXuSchYv8ZWDdE_k4hw-17" value="string" style="rounded=0;whiteSpace=wrap;html=1;" parent="WIyWlLk6GJQsqaUBKTNV-1" vertex="1">
          <mxGeometry x="3260" y="482.5" width="120" height="60" as="geometry" />
        </mxCell>
        <mxCell id="5KKWMiM6WOco4ZBjqF7u-1" value="0" style="text;html=1;strokeColor=none;fillColor=none;align=center;verticalAlign=middle;whiteSpace=wrap;rounded=0;" parent="WIyWlLk6GJQsqaUBKTNV-1" vertex="1">
          <mxGeometry x="3220" y="225" width="60" height="30" as="geometry" />
        </mxCell>
        <mxCell id="5KKWMiM6WOco4ZBjqF7u-2" value="0" style="text;html=1;strokeColor=none;fillColor=none;align=center;verticalAlign=middle;whiteSpace=wrap;rounded=0;" parent="WIyWlLk6GJQsqaUBKTNV-1" vertex="1">
          <mxGeometry x="3220" y="302.5" width="60" height="30" as="geometry" />
        </mxCell>
        <mxCell id="5KKWMiM6WOco4ZBjqF7u-3" value="0" style="text;html=1;strokeColor=none;fillColor=none;align=center;verticalAlign=middle;whiteSpace=wrap;rounded=0;" parent="WIyWlLk6GJQsqaUBKTNV-1" vertex="1">
          <mxGeometry x="3220" y="372.5" width="60" height="30" as="geometry" />
        </mxCell>
        <mxCell id="5KKWMiM6WOco4ZBjqF7u-4" value="0" style="text;html=1;strokeColor=none;fillColor=none;align=center;verticalAlign=middle;whiteSpace=wrap;rounded=0;" parent="WIyWlLk6GJQsqaUBKTNV-1" vertex="1">
          <mxGeometry x="3220" y="477.5" width="60" height="30" as="geometry" />
        </mxCell>
        <mxCell id="5KKWMiM6WOco4ZBjqF7u-5" value="&lt;font style=&quot;font-size: 10px;&quot;&gt;for i:=0 to mass_length&lt;br&gt;&lt;/font&gt;" style="shape=hexagon;perimeter=hexagonPerimeter2;whiteSpace=wrap;html=1;fixedSize=1;" parent="WIyWlLk6GJQsqaUBKTNV-1" vertex="1">
          <mxGeometry x="2160" y="392.5" width="90" height="45" as="geometry" />
        </mxCell>
      </root>
    </mxGraphModel>
  </diagram>
</mxfile>
